<svg width="80" height="80" viewBox="0 0 80 80" fill="none" xmlns="http://www.w3.org/2000/svg">
<rect width="80" height="80" rx="12" fill="#A236FF"/>
<path d="M33.0055 13.652C32.7628 13.2475 32.3257 13 31.854 13H18.8718C17.828 13 17.1832 14.1387 17.7203 15.0338L32.2231 39.2052C32.4658 39.6097 32.9029 39.8571 33.3746 39.8571H46.3569C47.4006 39.8571 48.0454 38.7184 47.5083 37.8234L33.0055 13.652Z" fill="#0355B6"/>
<path fill-rule="evenodd" clip-rule="evenodd" d="M31.854 11.6572H18.8717C16.7842 11.6572 15.4947 13.9346 16.5688 15.7247L31.0716 39.8962C31.557 40.7051 32.4312 41.2001 33.3746 41.2001H46.3568C48.4444 41.2001 49.7339 38.9227 48.6598 37.1326L34.157 12.9612C33.6716 12.1522 32.7974 11.6572 31.854 11.6572ZM31.854 13.0001C32.3257 13.0001 32.7628 13.2476 33.0055 13.652L47.5083 37.8235C48.0453 38.7185 47.4006 39.8572 46.3568 39.8572H33.3746C32.9029 39.8572 32.4658 39.6097 32.2231 39.2053L17.7203 15.0338C17.1832 14.1388 17.8279 13.0001 18.8717 13.0001H31.854Z" fill="#023E84"/>
<path d="M46.9945 13.652C47.2372 13.2475 47.6743 13 48.146 13H61.1282C62.172 13 62.8168 14.1387 62.2797 15.0338L47.7769 39.2052C47.5342 39.6097 47.0971 39.8571 46.6254 39.8571H33.6431C32.5994 39.8571 31.9546 38.7184 32.4917 37.8234L46.9945 13.652Z" fill="#086FE9"/>
<path fill-rule="evenodd" clip-rule="evenodd" d="M48.146 11.6572H61.1283C63.2158 11.6572 64.5053 13.9346 63.4312 15.7247L48.9284 39.8962C48.443 40.7051 47.5688 41.2001 46.6254 41.2001H33.6432C31.5556 41.2001 30.2661 38.9227 31.3402 37.1326L45.843 12.9612C46.3284 12.1522 47.2026 11.6572 48.146 11.6572ZM48.146 13.0001C47.6743 13.0001 47.2372 13.2476 46.9945 13.652L32.4917 37.8235C31.9547 38.7185 32.5994 39.8572 33.6432 39.8572H46.6254C47.0971 39.8572 47.5342 39.6097 47.7769 39.2053L62.2797 15.0338C62.8168 14.1388 62.1721 13.0001 61.1283 13.0001H48.146Z" fill="#023E84"/>
<path fill-rule="evenodd" clip-rule="evenodd" d="M48.3943 13.7618C48.715 13.948 48.824 14.3589 48.6378 14.6796L42.595 25.0867C42.4088 25.4074 41.9978 25.5164 41.6772 25.3302C41.3565 25.144 41.2475 24.7331 41.4337 24.4124L47.4765 14.0053C47.6627 13.6846 48.0736 13.5756 48.3943 13.7618Z" fill="#3D96FF"/>
<path fill-rule="evenodd" clip-rule="evenodd" d="M18.8485 13.7618C18.5279 13.948 18.4188 14.3589 18.605 14.6796L24.6479 25.0867C24.8341 25.4074 25.245 25.5164 25.5657 25.3302C25.8864 25.144 25.9954 24.7331 25.8092 24.4124L19.7663 14.0053C19.5801 13.6846 19.1692 13.5756 18.8485 13.7618Z" fill="#1871DA"/>
<path d="M31.6071 15.203C31.6071 15.6782 31.2313 16.0633 30.7678 16.0633C30.3043 16.0633 29.9285 15.6782 29.9285 15.203C29.9285 14.7279 30.3043 14.3428 30.7678 14.3428C31.2313 14.3428 31.6071 14.7279 31.6071 15.203Z" fill="#034592"/>
<path d="M28.6594 15.4129C28.6594 16.0039 28.192 16.483 27.6154 16.483C27.0388 16.483 26.5714 16.0039 26.5714 15.4129C26.5714 14.8219 27.0388 14.3428 27.6154 14.3428C28.192 14.3428 28.6594 14.8219 28.6594 15.4129Z" fill="#034592"/>
<path d="M31.2715 18.4763C31.2715 19.0673 30.804 19.5464 30.2275 19.5464C29.6509 19.5464 29.1835 19.0673 29.1835 18.4763C29.1835 17.8853 29.6509 17.4062 30.2275 17.4062C30.804 17.4062 31.2715 17.8853 31.2715 18.4763Z" fill="#034592"/>
<path d="M33.6582 17.0175C33.6582 17.313 33.4245 17.5525 33.1363 17.5525C32.848 17.5525 32.6143 17.313 32.6143 17.0175C32.6143 16.722 32.848 16.4824 33.1363 16.4824C33.4245 16.4824 33.6582 16.722 33.6582 17.0175Z" fill="#034592"/>
<path d="M28.1374 17.9413C28.1374 18.2368 27.9037 18.4763 27.6154 18.4763C27.3271 18.4763 27.0934 18.2368 27.0934 17.9413C27.0934 17.6458 27.3271 17.4062 27.6154 17.4062C27.9037 17.4062 28.1374 17.6458 28.1374 17.9413Z" fill="#034592"/>
<path d="M25.2286 14.6679C25.2286 14.9634 24.9949 15.2029 24.7066 15.2029C24.4183 15.2029 24.1846 14.9634 24.1846 14.6679C24.1846 14.3724 24.4183 14.1328 24.7066 14.1328C24.9949 14.1328 25.2286 14.3724 25.2286 14.6679Z" fill="#034592"/>
<path d="M33.1363 20.7528C33.1363 21.0483 32.9026 21.2879 32.6143 21.2879C32.326 21.2879 32.0923 21.0483 32.0923 20.7528C32.0923 20.4573 32.326 20.2178 32.6143 20.2178C32.9026 20.2178 33.1363 20.4573 33.1363 20.7528Z" fill="#034592"/>
<path d="M30.4505 21.288C30.4505 21.5835 30.2168 21.823 29.9286 21.823C29.6403 21.823 29.4066 21.5835 29.4066 21.288C29.4066 20.9925 29.6403 20.7529 29.9286 20.7529C30.2168 20.7529 30.4505 20.9925 30.4505 21.288Z" fill="#034592"/>
<path d="M35.6562 19.3473C35.6562 19.8282 35.2759 20.2181 34.8067 20.2181C34.3375 20.2181 33.9572 19.8282 33.9572 19.3473C33.9572 18.8664 34.3375 18.4766 34.8067 18.4766C35.2759 18.4766 35.6562 18.8664 35.6562 19.3473Z" fill="#034592"/>
<path d="M36.7636 21.8231C36.7636 22.1186 36.5299 22.3582 36.2416 22.3582C35.9533 22.3582 35.7196 22.1186 35.7196 21.8231C35.7196 21.5276 35.9533 21.2881 36.2416 21.2881C36.5299 21.2881 36.7636 21.5276 36.7636 21.8231Z" fill="#034592"/>
<path d="M58.1285 48.5856C58.1285 58.5977 50.0121 66.7142 40 66.7142C29.9878 66.7142 21.8714 58.5977 21.8714 48.5856C21.8714 38.5735 29.9878 30.457 40 30.457C50.0121 30.457 58.1285 38.5735 58.1285 48.5856Z" fill="#FFBB0D"/>
<path fill-rule="evenodd" clip-rule="evenodd" d="M59.4714 48.5857C59.4714 59.3395 50.7538 68.0571 40 68.0571C29.2462 68.0571 20.5286 59.3395 20.5286 48.5857C20.5286 37.8319 29.2462 29.1143 40 29.1143C50.7538 29.1143 59.4714 37.8319 59.4714 48.5857ZM40 66.7143C50.0121 66.7143 58.1286 58.5978 58.1286 48.5857C58.1286 38.5736 50.0121 30.4571 40 30.4571C29.9879 30.4571 21.8714 38.5736 21.8714 48.5857C21.8714 58.5978 29.9879 66.7143 40 66.7143Z" fill="#E89B05"/>
<path fill-rule="evenodd" clip-rule="evenodd" d="M23.2143 49.2568C22.8435 49.2568 22.5429 48.9562 22.5429 48.5854C22.5429 38.9441 30.3587 31.1283 40 31.1283C40.3708 31.1283 40.6714 31.4289 40.6714 31.7997C40.6714 32.1705 40.3708 32.4711 40 32.4711C31.1003 32.4711 23.8857 39.6857 23.8857 48.5854C23.8857 48.9562 23.5851 49.2568 23.2143 49.2568Z" fill="#E8AA0A"/>
<path fill-rule="evenodd" clip-rule="evenodd" d="M56.7857 47.9141C57.1565 47.9141 57.4571 48.2147 57.4571 48.5855C57.4571 58.2268 49.6413 66.0426 40 66.0426C39.6292 66.0426 39.3286 65.742 39.3286 65.3712C39.3286 65.0004 39.6292 64.6998 40 64.6998C48.8997 64.6998 56.1143 57.4852 56.1143 48.5855C56.1143 48.2147 56.4149 47.9141 56.7857 47.9141Z" fill="#E8AA0A"/>
<path d="M53.4286 48.5858C53.4286 56.0022 47.4164 62.0144 40 62.0144C32.5836 62.0144 26.5714 56.0022 26.5714 48.5858C26.5714 41.1694 32.5836 35.1572 40 35.1572C47.4164 35.1572 53.4286 41.1694 53.4286 48.5858Z" fill="#FFDD28"/>
<path fill-rule="evenodd" clip-rule="evenodd" d="M54.7714 48.5859C54.7714 56.7439 48.158 63.3573 40 63.3573C31.842 63.3573 25.2286 56.7439 25.2286 48.5859C25.2286 40.4278 31.842 33.8145 40 33.8145C48.158 33.8145 54.7714 40.4278 54.7714 48.5859ZM40 62.0145C47.4164 62.0145 53.4286 56.0023 53.4286 48.5859C53.4286 41.1695 47.4164 35.1573 40 35.1573C32.5836 35.1573 26.5714 41.1695 26.5714 48.5859C26.5714 56.0023 32.5836 62.0145 40 62.0145Z" fill="#E89B05"/>
<path fill-rule="evenodd" clip-rule="evenodd" d="M40 59.9999C46.3039 59.9999 51.4143 54.8896 51.4143 48.5856C51.4143 48.2148 51.7149 47.9142 52.0857 47.9142C52.4565 47.9142 52.7571 48.2148 52.7571 48.5856C52.7571 55.6312 47.0456 61.3428 40 61.3428C39.6292 61.3428 39.3286 61.0422 39.3286 60.6713C39.3286 60.3005 39.6292 59.9999 40 59.9999Z" fill="#ECC704"/>
<path fill-rule="evenodd" clip-rule="evenodd" d="M40 37.171C33.6961 37.171 28.5857 42.2813 28.5857 48.5853C28.5857 48.9561 28.2851 49.2567 27.9143 49.2567C27.5435 49.2567 27.2429 48.9561 27.2429 48.5853C27.2429 41.5397 32.9544 35.8281 40 35.8281C40.3708 35.8281 40.6714 36.1287 40.6714 36.4996C40.6714 36.8704 40.3708 37.171 40 37.171Z" fill="#FFEF9C"/>
</svg>
