<svg width="12" height="12" viewBox="0 0 12 12" fill="none" xmlns="http://www.w3.org/2000/svg">
<path fill-rule="evenodd" clip-rule="evenodd" d="M3.00001 1.2002C3.33138 1.2002 3.60001 1.46882 3.60001 1.8002V2.4002H4.20001C4.53138 2.4002 4.80001 2.66882 4.80001 3.0002C4.80001 3.33157 4.53138 3.6002 4.20001 3.6002H3.60001V4.2002C3.60001 4.53157 3.33138 4.8002 3.00001 4.8002C2.66864 4.8002 2.40001 4.53157 2.40001 4.2002V3.6002H1.80001C1.46864 3.6002 1.20001 3.33157 1.20001 3.0002C1.20001 2.66882 1.46864 2.4002 1.80001 2.4002H2.40001V1.8002C2.40001 1.46882 2.66864 1.2002 3.00001 1.2002ZM3.00001 7.2002C3.33138 7.2002 3.60001 7.46882 3.60001 7.8002V8.4002H4.20001C4.53138 8.4002 4.80001 8.66882 4.80001 9.0002C4.80001 9.33157 4.53138 9.6002 4.20001 9.6002H3.60001V10.2002C3.60001 10.5316 3.33138 10.8002 3.00001 10.8002C2.66864 10.8002 2.40001 10.5316 2.40001 10.2002V9.6002H1.80001C1.46864 9.6002 1.20001 9.33157 1.20001 9.0002C1.20001 8.66882 1.46864 8.4002 1.80001 8.4002H2.40001V7.8002C2.40001 7.46882 2.66864 7.2002 3.00001 7.2002Z" fill="#CE42FF"/>
<path fill-rule="evenodd" clip-rule="evenodd" d="M7.19998 1.2002C7.47222 1.2002 7.71034 1.38348 7.78 1.64666L8.48753 4.31955L10.4998 5.48048C10.6855 5.58764 10.8 5.78577 10.8 6.0002C10.8 6.21462 10.6855 6.41275 10.4998 6.51991L8.48753 7.68084L7.78 10.3537C7.71034 10.6169 7.47222 10.8002 7.19998 10.8002C6.92774 10.8002 6.68962 10.6169 6.61996 10.3537L5.91243 7.68084L3.90018 6.51991C3.71444 6.41275 3.60001 6.21462 3.60001 6.0002C3.60001 5.78577 3.71444 5.58764 3.90018 5.48049L5.91243 4.31956L6.61996 1.64666C6.68962 1.38348 6.92774 1.2002 7.19998 1.2002Z" fill="#CE42FF"/>
</svg>
