<svg width="880" height="114" viewBox="0 0 802 114" fill="none" xmlns="http://www.w3.org/2000/svg">
<g style="mix-blend-mode:color-dodge" opacity="0.4" transform="translate(70,0)">
<path d="M768.397 -352.193C798.958 -340.152 820.278 -309.126 820.293 -276.674C820.303 -255.039 811.727 -233.756 812.662 -212.159C814.087 -179.166 837.122 -151.64 860.658 -128.41C884.194 -105.18 910.292 -82.2178 920.797 -51.0236C934.618 -9.97231 919.579 40.4585 945.768 75.0657C960.046 93.9333 984.825 104.868 993.978 126.627C999.923 140.755 998.064 156.82 997.856 172.223C997.648 187.625 999.934 204.533 1011.58 214.661" stroke="url(#paint0_linear_9_5671)" stroke-miterlimit="10"/>
<path d="M761.279 -348.45C791.282 -337.191 812.2 -306.883 812.639 -275.205C812.945 -253.507 804.623 -232.065 805.25 -210.391C806.166 -178.18 827.584 -151.188 849.689 -127.86C873.172 -103.066 902.089 -80.4281 913.164 -47.9827C926.842 -7.64904 911.959 41.9134 937.598 76.0275C951.854 95.0395 976.708 105.837 986.487 127.39C993.233 142.258 991.362 159.521 991.043 175.977C990.724 192.433 993.123 210.651 1005.79 221.197" stroke="url(#paint1_linear_9_5671)" stroke-miterlimit="10"/>
<path d="M754.173 -344.703C783.627 -334.227 804.153 -304.633 805.006 -273.734C805.608 -251.972 797.558 -230.38 797.85 -208.617C798.275 -177.195 818.002 -150.669 838.724 -127.3C862.141 -100.9 893.873 -78.6426 905.518 -44.9459C919.054 -5.3299 904.331 43.3725 929.412 76.977C943.647 96.1334 968.622 106.785 978.972 128.144C986.528 143.748 984.633 162.204 984.215 179.718C983.796 197.232 986.289 216.76 999.974 227.716" stroke="url(#paint2_linear_9_5671)" stroke-miterlimit="10"/>
<path d="M747.067 -340.955C775.963 -331.26 796.107 -302.383 797.364 -272.259C798.27 -250.437 790.492 -228.693 790.45 -206.843C790.392 -176.214 808.373 -150.071 827.755 -126.749C851.084 -98.6737 885.739 -76.8797 897.876 -41.9002C911.364 -3.04035 896.707 44.8404 921.233 77.9436C935.45 97.2526 960.588 107.741 971.464 128.915C979.859 145.253 977.91 164.904 977.384 183.48C976.87 202.061 979.461 222.887 994.158 234.264" stroke="url(#paint3_linear_9_5671)" stroke-miterlimit="10"/>
<path d="M739.949 -337.213C768.295 -328.303 788.078 -300.141 789.71 -270.791C790.933 -248.903 783.415 -227.014 783.034 -205.084C782.511 -175.253 798.674 -149.447 816.775 -126.203C839.97 -96.4164 877.54 -75.1021 890.23 -38.8644C903.581 -0.733936 889.075 46.2902 913.042 78.9039C927.238 98.3573 952.557 108.675 963.952 129.676C973.204 146.742 971.184 167.594 970.559 187.229C969.934 206.863 972.63 229.003 988.357 240.795" stroke="url(#paint4_linear_9_5671)" stroke-miterlimit="10"/>
<path d="M732.843 -333.464C760.643 -325.33 780.061 -297.893 782.077 -269.319C783.62 -247.359 776.375 -225.338 775.643 -203.314C774.678 -174.273 788.953 -148.754 805.826 -125.65C828.848 -94.1054 869.354 -73.3182 882.605 -35.8257C895.822 1.5836 881.468 47.7512 904.877 79.8552C919.051 99.453 944.585 109.586 956.457 130.432C966.588 148.206 964.475 170.279 963.742 190.975C963.01 211.672 965.808 235.118 982.555 247.327" stroke="url(#paint5_linear_9_5671)" stroke-miterlimit="10"/>
<path d="M725.728 -329.713C752.97 -322.36 772.056 -295.64 774.423 -267.85C776.303 -245.823 769.318 -223.656 768.222 -201.542C766.821 -173.302 779.155 -148.03 794.84 -125.092C817.638 -91.74 861.139 -71.5327 874.942 -32.782C888.014 3.90139 873.822 49.2172 896.678 80.8199C910.839 100.559 936.596 110.504 948.937 131.198C959.958 149.685 957.732 172.977 956.909 194.728C956.086 216.479 958.977 241.235 976.744 253.863" stroke="url(#paint6_linear_9_5671)" stroke-miterlimit="10"/>
<path d="M718.618 -325.975C745.311 -319.406 764.064 -293.404 766.786 -266.388C769.003 -244.295 762.295 -221.988 760.827 -199.781C759.013 -172.333 769.338 -147.28 783.88 -124.545C806.392 -89.3411 852.932 -69.7514 867.308 -29.7411C880.238 6.22459 866.203 50.672 888.507 81.7817C902.647 101.665 928.65 111.403 941.437 131.964C953.362 151.149 951.018 175.673 950.095 198.482C949.173 221.291 952.158 247.357 970.946 260.403" stroke="url(#paint7_linear_9_5671)" stroke-miterlimit="10"/>
<path d="M711.504 -322.223C737.638 -316.436 756.085 -291.162 759.136 -264.91C761.707 -242.757 755.27 -220.3 753.419 -198.004C751.201 -171.351 759.465 -146.495 772.911 -123.993C795.063 -86.898 844.717 -67.9656 859.672 -26.7076C872.446 8.53572 858.575 52.1314 880.33 82.7279C894.453 102.764 920.724 112.277 933.939 132.711C946.783 152.579 944.306 178.349 943.276 202.22C942.246 226.091 945.341 253.459 965.141 266.927" stroke="url(#paint8_linear_9_5671)" stroke-miterlimit="10"/>
<path d="M704.398 -318.476C729.983 -313.473 748.126 -288.918 751.494 -263.436C754.432 -241.219 748.266 -218.61 746.01 -196.227C743.409 -170.368 749.552 -145.686 761.938 -123.431C783.656 -84.4039 836.488 -66.1651 852.021 -23.6593C864.636 10.8733 850.941 53.602 872.134 83.7006C886.235 103.881 912.778 113.176 926.413 133.488C940.201 154.029 937.566 181.055 936.437 205.985C935.299 230.918 938.496 259.592 959.325 273.474" stroke="url(#paint9_linear_9_5671)" stroke-miterlimit="10"/>
<path d="M697.283 -314.725C722.31 -310.502 740.18 -286.67 743.852 -261.961C747.164 -239.684 741.279 -216.928 738.61 -194.454C735.634 -169.393 739.609 -144.874 750.972 -122.871C772.154 -81.8712 828.173 -64.3294 844.382 -20.606C856.766 13.2357 843.317 55.0693 863.955 84.6666C878.035 104.991 904.863 114.054 918.905 134.259C933.645 155.468 930.843 183.755 929.606 209.746C928.37 235.737 931.669 265.718 953.506 280.013" stroke="url(#paint10_linear_9_5671)" stroke-miterlimit="10"/>
<path d="M690.174 -310.986C714.651 -307.548 732.234 -284.443 736.207 -260.496C739.911 -238.165 734.304 -215.241 731.206 -192.689C727.88 -168.416 729.62 -144.054 740.003 -122.32C760.547 -79.3252 819.966 -62.5478 836.745 -17.5731C848.983 15.5426 835.697 56.5244 855.781 85.6204C869.84 106.089 896.967 114.904 911.406 135.005C927.113 156.868 924.131 186.43 922.795 213.48C921.459 240.53 924.851 271.819 947.718 286.529" stroke="url(#paint11_linear_9_5671)" stroke-miterlimit="10"/>
<path d="M683.059 -307.234C706.987 -304.581 724.301 -282.21 728.553 -259.026C732.658 -236.645 727.329 -213.553 723.794 -190.92C720.117 -167.435 719.591 -143.235 729.035 -121.769C748.838 -76.7367 811.751 -60.762 829.099 -14.536C841.195 17.8621 828.069 57.9839 847.599 86.5785C861.64 107.2 889.063 115.759 903.895 135.768C920.573 158.272 917.405 189.122 915.961 217.233C914.518 245.345 918.021 277.937 941.899 293.069" stroke="url(#paint12_linear_9_5671)" stroke-miterlimit="10"/>
<path d="M675.953 -303.487C699.323 -301.614 716.397 -279.979 720.92 -257.555C725.442 -235.131 720.407 -211.858 716.394 -189.147C712.381 -166.436 709.54 -142.419 718.066 -121.218C737.003 -74.1365 803.535 -58.9768 821.457 -11.4912C833.411 20.1892 820.441 59.4426 839.416 87.5359C853.436 108.302 881.163 116.601 896.391 136.526C914.064 159.653 910.687 191.809 909.145 220.979C907.602 250.149 911.198 284.051 936.097 299.6" stroke="url(#paint13_linear_9_5671)" stroke-miterlimit="10"/>
<path d="M670.062 -301.989C693.097 -299.612 710.006 -278.433 714.857 -256.307C718.99 -237.467 716.366 -217.901 712.92 -198.61C712.321 -195.244 711.697 -191.888 711.082 -188.535C706.969 -166.045 703.493 -142.457 710.887 -121.358C727.282 -74.4039 789.792 -56.4229 808.972 -10.1192C810.508 -6.42106 811.71 -2.63525 812.7 1.21782C819.477 27.8033 815.347 57.4457 827.958 81.6549C828.773 83.2134 829.648 84.7475 830.609 86.2467C838.665 98.9035 850.948 107.424 862.917 116.597C870.708 122.585 878.352 128.779 884.314 136.588C901.811 159.506 900.701 190.302 900.64 218.762C900.634 220.393 900.647 222.046 900.672 223.703C901.107 251.001 905.868 281.597 927.265 297.071" stroke="url(#paint14_linear_9_5671)" stroke-miterlimit="10"/>
<path d="M664.165 -300.479C686.868 -297.589 703.613 -276.886 708.784 -255.056C713.196 -236.464 711.036 -217.038 707.616 -197.904C707.019 -194.558 706.39 -191.239 705.758 -187.927C701.525 -165.66 697.425 -142.497 703.693 -121.51C717.545 -74.6842 776.02 -53.887 796.463 -8.7567C798.091 -5.15391 799.447 -1.47953 800.593 2.24195C808.529 27.9387 807.024 56.0948 819.24 80.3391C820.026 81.8999 820.871 83.4361 821.777 84.948C829.396 97.6859 840.427 106.717 851.635 116.258C858.935 122.514 866.292 128.863 872.213 136.621C889.535 159.329 890.692 188.766 892.112 216.515C892.201 218.108 892.288 219.721 892.398 221.343C894.132 247.996 899.094 278.229 918.419 294.508" stroke="url(#paint15_linear_9_5671)" stroke-miterlimit="10"/>
<path d="M658.277 -298.972C680.637 -295.574 697.234 -275.334 702.73 -253.81C707.416 -235.477 705.714 -216.179 702.33 -197.204C701.739 -193.89 701.1 -190.596 700.455 -187.318C696.113 -165.268 691.387 -142.538 696.519 -121.661C707.825 -74.971 762.281 -51.3443 783.987 -7.38752C785.718 -3.87524 787.209 -0.313664 788.523 3.28104C797.617 28.0891 798.738 54.7588 810.558 79.0384C811.314 80.6013 812.119 82.1349 812.97 83.6594C820.152 96.4784 829.958 105.989 840.381 115.937C847.207 122.454 854.261 128.965 860.132 136.676C877.283 159.162 880.702 187.251 883.612 214.287C883.787 215.845 883.965 217.411 884.149 218.994C887.175 245.013 892.345 274.871 909.597 291.955" stroke="url(#paint16_linear_9_5671)" stroke-miterlimit="10"/>
<path d="M652.388 -297.466C674.414 -293.563 690.845 -273.779 696.666 -252.562C701.631 -234.478 700.392 -215.32 697.034 -196.502C696.45 -193.22 695.81 -189.954 695.143 -186.706C690.688 -164.881 685.386 -142.585 689.337 -121.809C698.201 -75.2686 748.525 -48.7954 771.499 -6.02388C773.329 -2.61041 774.957 0.846684 776.445 4.30281C786.698 28.2221 790.449 53.3937 801.868 77.7203C802.604 79.2818 803.363 80.8246 804.168 82.3582C810.909 95.25 819.471 105.268 829.132 115.603C835.475 122.384 842.222 129.05 848.068 136.723C865.044 158.999 870.73 185.729 875.121 212.055C875.378 213.569 875.641 215.1 875.903 216.652C880.218 242.03 885.599 271.521 900.781 289.418" stroke="url(#paint17_linear_9_5671)" stroke-miterlimit="10"/>
<path d="M646.497 -295.967C668.191 -291.551 684.462 -272.235 690.603 -251.314C695.847 -233.478 695.062 -214.458 691.739 -195.799C691.157 -192.537 690.512 -189.308 689.831 -186.093C685.259 -164.482 679.339 -142.623 682.167 -121.952C688.5 -75.534 734.778 -46.2493 759.014 -4.6513C760.948 -1.32833 762.707 2.00765 764.366 5.34532C775.778 28.3759 782.154 52.0612 793.178 76.4229C793.884 77.9867 794.605 79.5351 795.352 81.0731C801.656 94.0459 808.974 104.57 817.869 115.285C823.734 122.339 830.181 129.156 835.986 136.777C852.787 158.844 860.736 184.205 866.621 209.827C866.964 211.306 867.31 212.794 867.654 214.302C873.258 239.038 878.853 268.171 891.959 286.866" stroke="url(#paint18_linear_9_5671)" stroke-miterlimit="10"/>
<path d="M640.6 -294.457C661.951 -289.533 678.064 -270.676 684.539 -250.065C690.058 -232.488 689.737 -213.607 686.452 -195.099C685.877 -191.87 685.222 -188.665 684.527 -185.483C679.847 -164.091 673.303 -142.656 674.993 -122.103C678.796 -75.808 721.039 -43.707 746.534 -3.29083C748.568 -0.0666767 750.473 3.16134 752.289 6.36741C764.855 28.5009 773.861 50.7083 784.497 75.1016C785.183 76.6641 785.858 78.2217 786.555 79.7605C792.422 92.8144 798.487 103.849 806.626 114.94C812.002 122.271 818.16 129.234 823.924 136.804C840.545 158.653 850.765 182.663 858.135 207.583C858.568 209.015 858.992 210.472 859.413 211.948C866.306 236.044 872.112 264.809 883.149 284.318" stroke="url(#paint19_linear_9_5671)" stroke-miterlimit="10"/>
<path d="M634.712 -292.951C655.729 -287.522 671.681 -269.133 678.476 -248.817C684.274 -231.489 684.415 -212.748 681.153 -194.405C680.585 -191.207 679.92 -188.028 679.212 -184.879C674.42 -163.712 667.253 -142.703 667.807 -122.259C669.059 -76.0883 707.28 -41.1661 734.038 -1.92346C736.174 1.2102 738.213 4.3254 740.198 7.40471C753.914 28.653 765.554 49.3705 775.794 73.7991C776.451 75.3637 777.097 76.9234 777.739 78.4749C783.165 91.6016 787.981 103.155 795.36 114.614C800.245 122.212 806.112 129.323 811.834 136.862C828.289 158.498 840.767 181.152 849.626 205.357C850.146 206.755 850.651 208.168 851.155 209.602C859.338 233.055 865.362 261.45 874.318 281.768" stroke="url(#paint20_linear_9_5671)" stroke-miterlimit="10"/>
<path d="M628.823 -291.445C649.509 -285.503 665.301 -267.582 672.415 -247.561C678.489 -230.49 679.088 -211.878 675.861 -193.694C675.295 -190.517 674.633 -187.377 673.903 -184.259C668.993 -163.306 661.2 -142.729 660.632 -122.391C659.332 -76.344 693.536 -38.6124 721.556 -0.543243C723.792 2.4916 725.969 5.5023 728.127 8.44302C743.002 28.8026 757.276 48.0303 767.112 72.4976C767.74 74.0643 768.344 75.6214 768.931 77.1855C773.921 90.3933 777.484 102.457 784.097 114.296C788.494 122.17 794.063 129.432 799.752 136.916C816.032 158.342 830.777 179.636 841.118 203.132C841.723 204.495 842.311 205.865 842.9 207.263C852.376 230.084 858.607 258.103 865.49 279.226" stroke="url(#paint21_linear_9_5671)" stroke-miterlimit="10"/>
<path d="M622.927 -289.935C643.269 -283.485 658.904 -266.023 666.352 -246.313C672.704 -229.491 673.766 -211.019 670.566 -192.992C670.007 -189.846 669.335 -186.732 668.582 -183.643C663.561 -162.916 655.136 -142.76 653.441 -122.535C649.59 -76.6127 679.772 -36.06 709.059 0.823905C711.399 3.76824 713.715 6.65436 716.036 9.48012C732.069 28.9509 748.965 46.6841 758.409 71.1948C759.016 72.7602 759.574 74.3265 760.115 75.8998C764.668 89.1887 766.978 101.762 772.834 113.977C776.744 122.128 782.023 129.537 787.671 136.97C803.775 158.186 820.787 178.121 832.618 200.903C833.305 202.223 833.979 203.558 834.642 204.916C845.407 227.095 851.849 254.748 856.663 276.685" stroke="url(#paint22_linear_9_5671)" stroke-miterlimit="10"/>
<path d="M617.035 -288.436C637.043 -281.481 652.52 -264.479 660.285 -245.073C666.924 -228.503 668.441 -210.168 665.267 -192.297C664.715 -189.183 664.033 -186.094 663.267 -183.038C658.137 -162.528 649.076 -142.803 646.255 -122.691C639.832 -76.8938 666.012 -33.5186 696.562 2.19182C699.002 5.03734 701.455 7.81898 703.942 10.5097C721.133 29.0917 740.655 45.3385 749.702 69.8845C750.281 71.4521 750.801 73.024 751.292 74.5981C755.404 87.9598 756.526 101.027 761.564 113.643C764.932 122.083 769.972 129.618 775.583 137.008C791.516 158.003 810.791 176.59 824.102 198.662C824.884 199.943 825.644 201.243 826.378 202.553C838.431 224.091 845.084 251.377 847.826 274.119" stroke="url(#paint23_linear_9_5671)" stroke-miterlimit="10"/>
<path d="M611.147 -286.93C630.823 -279.462 646.14 -262.928 654.222 -243.824C661.136 -227.513 663.11 -209.305 659.972 -191.594C659.421 -188.5 658.743 -185.451 657.955 -182.425C652.704 -162.138 642.988 -142.843 639.073 -122.838C630.013 -77.1792 652.265 -30.9727 684.074 3.55583C686.617 6.31086 689.204 8.9797 691.859 11.5436C710.206 29.2286 732.356 43.9974 741.005 68.5702C741.554 70.14 742.045 71.7141 742.473 73.3044C746.148 86.7471 745.922 100.363 750.298 113.317C753.204 122.022 757.928 129.715 763.493 137.066C779.251 157.851 800.789 175.07 815.594 196.437C816.458 197.675 817.303 198.94 818.115 200.219C831.466 221.112 838.321 248.034 838.993 271.59" stroke="url(#paint24_linear_9_5671)" stroke-miterlimit="10"/>
<path d="M605.259 -285.423C624.592 -277.447 639.749 -261.381 648.17 -242.571C655.363 -226.509 657.801 -208.442 654.688 -190.887C654.145 -187.825 653.456 -184.801 652.655 -181.808C647.296 -161.738 636.944 -142.873 631.906 -122.973C620.3 -77.45 638.521 -28.4189 671.593 4.9362C674.227 7.5959 676.96 10.1568 679.789 12.5821C699.294 29.3784 724.078 42.6574 732.323 67.2689C732.851 68.8373 733.296 70.4206 733.674 72.0117C736.912 85.5356 735.434 99.6619 739.05 112.983C741.464 121.957 745.901 129.805 751.425 137.105C767.008 157.68 790.813 173.539 807.099 194.196C808.049 195.399 808.977 196.621 809.871 197.857C824.515 218.116 831.58 244.672 830.176 269.025" stroke="url(#paint25_linear_9_5671)" stroke-miterlimit="10"/>
<path d="M599.362 -283.913C634.597 -268.182 656.07 -227.941 649.384 -190.18C645.241 -166.805 631.806 -145.86 624.716 -123.117C609.432 -74.0987 627.21 -17.5581 667.698 13.6199C688.361 29.5275 715.771 41.3202 723.62 65.9668C728.367 80.8633 724.586 97.3429 727.775 112.661C735.429 149.379 777.922 166.352 801.607 195.522C817.541 215.141 824.825 241.326 821.34 266.488" stroke="url(#paint26_linear_9_5671)" stroke-miterlimit="10"/>
<path d="M811.022 270.108C815.418 245.341 808.808 219.094 793.545 199.155C791.233 196.131 788.72 193.228 786.066 190.422C765.928 169.123 737.736 153.151 725.155 128.502C723.149 124.559 721.534 120.399 720.424 115.955C716.652 100.972 719.34 84.8788 714.29 70.1733C711.328 61.5495 706.146 54.4017 699.838 48.0031C688.338 36.3224 673.158 27.1974 660.678 16.4493C641.241 -0.229314 627.558 -23.1393 620.389 -48.0336C613.584 -71.6899 612.634 -97.13 618.755 -120.855C624.594 -143.456 636.125 -164.334 639.018 -187.413C642.057 -211.657 634.016 -236.826 618.638 -256.088C610.371 -266.439 599.992 -275.096 588.06 -280.987" stroke="url(#paint27_linear_9_5671)" stroke-miterlimit="10"/>
<path d="M800.695 273.733C806.005 249.369 800.076 223.048 785.481 202.788C783.269 199.714 780.856 196.761 778.302 193.904C758.905 172.216 731.374 155.829 718.17 131.541C716.071 127.665 714.341 123.59 713.062 119.245C708.723 104.589 710.312 88.8951 704.96 74.3806C701.83 65.8835 696.704 58.7029 690.618 52.185C679.5 40.2131 665.285 30.5109 653.662 19.2877C635.555 1.92174 622.985 -21.2282 616.067 -46.1183C609.495 -69.792 608.005 -95.012 612.807 -118.587C617.387 -141.035 627.033 -161.852 628.656 -184.637C630.385 -208.56 621.862 -233.291 606.634 -252.576C598.448 -262.95 588.315 -271.765 576.756 -278.041" stroke="url(#paint28_linear_9_5671)" stroke-miterlimit="10"/>
<path d="M790.36 277.361C796.584 253.4 791.335 227.007 777.41 206.425C775.298 203.301 772.984 200.298 770.529 197.39C751.874 175.313 724.996 158.515 711.186 134.58C708.994 130.771 707.137 126.777 705.691 122.538C700.773 108.206 701.277 92.9153 695.614 78.5953C692.315 70.225 687.249 63.02 681.387 56.3626C670.654 44.1079 657.431 33.7977 646.625 22.1253C629.897 4.04269 618.391 -19.3178 611.717 -44.2004C605.378 -67.8914 603.343 -92.8794 606.83 -116.317C610.158 -138.623 617.904 -159.364 618.27 -181.87C618.689 -205.473 609.688 -229.756 594.596 -249.077C586.481 -259.471 576.594 -268.444 565.422 -275.121" stroke="url(#paint29_linear_9_5671)" stroke-miterlimit="10"/>
<path d="M780.033 280.985C787.18 257.424 782.603 230.96 769.339 210.061C767.329 206.895 765.12 203.83 762.757 200.876C744.831 178.404 718.623 161.187 704.196 137.63C701.912 133.888 699.927 129.975 698.326 125.847C692.833 111.846 692.248 96.9509 686.283 82.8218C682.815 74.5783 677.81 67.3489 672.165 60.5639C661.814 48.0181 649.557 37.1305 639.604 24.9747C624.215 6.20129 613.813 -17.3957 607.391 -42.2741C601.285 -65.9825 598.708 -90.7503 600.868 -114.035C602.946 -136.19 608.789 -156.865 607.902 -179.082C607.002 -202.361 597.528 -226.21 582.587 -245.554C574.545 -255.967 564.912 -265.102 554.119 -272.175" stroke="url(#paint30_linear_9_5671)" stroke-miterlimit="10"/>
<path d="M769.709 284.619C777.771 261.461 773.874 234.923 761.279 213.703C759.369 210.487 757.26 207.371 754.996 204.367C737.812 181.506 712.265 163.875 697.224 140.675C694.855 136.996 692.747 133.171 690.976 129.142C684.908 115.472 683.233 100.972 676.965 87.0345C673.326 78.9094 668.367 71.6708 662.966 64.7477C652.965 51.933 641.713 40.4423 632.6 27.8185C618.562 8.35906 609.252 -15.4791 603.081 -40.3535C597.208 -64.0792 594.083 -88.6234 594.931 -111.761C595.752 -133.764 599.706 -154.386 597.56 -176.304C595.351 -199.263 585.407 -222.668 570.601 -242.048C562.631 -252.481 553.252 -261.778 542.841 -269.239" stroke="url(#paint31_linear_9_5671)" stroke-miterlimit="10"/>
<path d="M759.382 288.244C768.367 265.485 765.145 238.886 753.216 217.336C751.406 214.07 749.399 210.912 747.231 207.849C730.789 184.599 705.892 166.548 690.239 143.714C687.777 140.101 685.542 136.358 683.605 132.436C676.961 119.097 674.193 104.984 667.615 91.2406C663.807 83.2423 658.905 75.9709 653.731 68.9167C644.115 55.8192 633.828 43.7512 625.568 30.644C612.864 10.5055 604.655 -13.5774 598.736 -38.4477C593.096 -62.1907 589.43 -86.5148 588.95 -109.5C588.519 -131.36 590.573 -151.906 587.174 -173.537C583.651 -196.184 573.229 -219.143 558.574 -238.545C550.676 -248.997 541.551 -258.456 531.51 -266.31" stroke="url(#paint32_linear_9_5671)" stroke-miterlimit="10"/>
<path d="M749.046 291.871C758.946 269.516 756.404 242.843 745.136 220.976C743.425 217.659 741.527 214.448 739.459 211.335C723.746 187.691 699.522 169.229 683.246 146.755C680.691 143.21 678.329 139.548 676.233 135.728C669.015 122.721 665.158 109.003 658.277 95.4507C654.292 87.5827 649.458 80.2833 644.502 73.1016C635.268 59.7129 625.946 47.0675 618.531 33.4805C607.169 12.6595 600.061 -11.6682 594.397 -36.526C588.99 -60.2864 584.775 -84.3868 582.985 -107.226C581.295 -128.932 581.455 -149.415 576.803 -170.758C571.97 -193.085 561.066 -215.605 546.554 -235.026C538.736 -245.502 529.854 -255.127 520.198 -263.361" stroke="url(#paint33_linear_9_5671)" stroke-miterlimit="10"/>
<path d="M738.719 295.496C749.533 273.544 747.672 246.798 737.074 224.61C735.465 221.251 733.663 217.981 731.695 214.818C716.724 190.784 693.157 171.9 676.27 149.791C673.623 146.313 671.142 142.728 668.871 139.019C661.077 126.342 656.131 113.02 648.948 99.6584C644.791 91.9088 640.017 84.585 635.291 77.2805C626.438 63.6006 618.085 50.3862 611.524 36.3159C601.492 14.8075 595.497 -9.76006 590.076 -34.6103C584.902 -58.388 580.147 -82.2683 577.033 -104.966C574.095 -126.522 572.36 -146.941 566.437 -167.99C560.294 -189.996 548.912 -212.069 534.544 -231.53C526.798 -242.025 518.17 -251.812 508.893 -260.443" stroke="url(#paint34_linear_9_5671)" stroke-miterlimit="10"/>
<path d="M728.392 299.122C740.129 277.569 738.931 250.756 729.011 228.243C727.502 224.834 725.8 221.514 723.931 218.3C709.693 193.881 686.788 174.582 669.289 152.839C666.557 149.424 663.944 145.931 661.512 142.317C653.143 129.972 647.107 117.045 639.613 103.878C635.288 96.2551 630.591 88.8998 626.072 81.4628C617.626 67.4814 610.215 53.7084 604.499 39.1582C595.793 16.9743 590.915 -7.84496 585.746 -32.6911C580.805 -56.4862 575.509 -80.1463 571.068 -102.691C566.877 -124.105 563.239 -144.456 556.066 -165.209C548.613 -186.895 536.75 -208.53 522.532 -228.013C514.858 -238.528 506.476 -248.473 497.586 -257.504" stroke="url(#paint35_linear_9_5671)" stroke-miterlimit="10"/>
<path d="M718.057 302.75C730.708 281.6 730.19 254.714 720.93 231.883C719.53 228.42 717.927 225.05 716.149 221.79C702.65 196.973 680.406 177.259 662.295 155.881C659.471 152.533 656.731 149.121 654.144 145.618C645.199 133.605 638.074 121.073 630.278 108.097C625.784 100.601 621.145 93.2126 616.847 85.6563C608.786 71.392 602.328 57.037 597.477 42.0082C590.097 19.1488 586.337 -5.92226 581.411 -30.7608C576.703 -54.5732 570.861 -78.0014 565.106 -100.408C559.657 -121.669 554.124 -141.956 545.698 -162.422C536.927 -183.784 524.602 -204.979 510.52 -224.498C502.918 -235.032 494.79 -245.139 486.274 -254.555" stroke="url(#paint36_linear_9_5671)" stroke-miterlimit="10"/>
<path d="M707.73 306.373C721.296 285.627 721.461 258.676 712.868 235.515C711.567 232.002 710.064 228.582 708.385 225.271C695.627 200.065 674.045 179.936 655.311 158.919C652.394 155.638 649.535 152.304 646.773 148.911C637.253 137.228 629.035 125.083 620.94 112.307C616.278 104.937 611.699 97.5249 607.627 89.8375C599.948 75.282 594.421 60.3636 590.449 44.841C584.356 21.3117 581.752 -4.0167 577.078 -28.8512C572.603 -52.6809 566.221 -75.8889 559.146 -98.1457C552.447 -119.257 545.02 -139.48 535.332 -159.654C525.251 -180.696 512.445 -201.453 498.505 -220.991C490.975 -231.545 483.102 -241.814 474.964 -251.626" stroke="url(#paint37_linear_9_5671)" stroke-miterlimit="10"/>
<path d="M697.403 309.998C711.892 289.651 712.729 262.63 704.805 239.149C703.607 235.594 702.2 232.115 700.621 228.754C688.596 203.162 667.68 182.606 648.335 161.954C645.325 158.74 642.343 155.495 639.419 152.197C629.324 140.846 620.017 129.096 611.607 116.506C606.774 109.255 602.254 101.818 598.412 94.0077C591.118 79.1695 586.554 63.6653 583.438 47.6678C578.676 23.451 577.184 -2.11723 572.762 -26.9476C568.52 -50.7947 561.589 -73.779 553.194 -95.8862C545.243 -116.855 535.916 -137.003 524.975 -156.89C513.584 -177.612 500.3 -197.921 486.507 -217.49C479.058 -228.067 471.43 -238.494 463.671 -248.703" stroke="url(#paint38_linear_9_5671)" stroke-miterlimit="10"/>
<path d="M687.067 313.627C704.8 290.659 704.131 258.222 692.845 232.232C681.558 206.242 661.298 185.284 641.338 164.989C621.382 144.702 600.95 123.959 589.181 98.1852C571.825 60.193 575.352 16.2252 568.411 -25.0298C556.641 -95.0602 515.05 -155.716 474.472 -213.983C467.095 -224.58 459.721 -235.169 452.344 -245.766" stroke="url(#paint39_linear_9_5671)" stroke-miterlimit="10"/>
<path d="M447.666 -240.525C456.085 -229.335 464.539 -218.159 472.612 -206.662C511.489 -151.27 550.875 -93.2055 561.611 -26.3996C568.221 14.7288 564.63 57.6561 578.699 96.347C588.66 123.749 608.99 146.424 629.815 167.714C649.795 188.108 670.504 208.719 682.148 234.63C694.307 261.681 694.368 295.966 680.731 319.436" stroke="url(#paint40_linear_9_5671)" stroke-miterlimit="10"/>
<path d="M442.994 -235.297C452.451 -223.521 461.988 -211.748 470.746 -199.358C507.874 -146.811 545.064 -91.3618 554.813 -27.7893C561.098 13.229 555.386 55.9344 568.219 94.4889C577.718 123.039 596.59 148.13 618.281 170.416C638.293 190.912 659.468 211.168 671.454 237.009C684.496 265.124 683.932 301.264 674.391 325.237" stroke="url(#paint41_linear_9_5671)" stroke-miterlimit="10"/>
<path d="M438.316 -230.057C448.816 -217.688 459.42 -205.332 468.874 -192.043C504.231 -142.322 539.23 -89.5001 548.01 -29.1681C553.958 11.7353 547.021 53.9123 557.734 92.6417C566.039 122.658 584.198 149.852 606.746 173.136C626.778 193.731 648.436 213.626 660.757 239.407C674.701 268.581 673.491 306.573 668.047 331.05" stroke="url(#paint42_linear_9_5671)" stroke-miterlimit="10"/>
<path d="M433.638 -224.816C445.18 -211.853 456.864 -198.91 467.006 -184.718C500.557 -137.81 533.362 -87.6233 541.202 -30.5341C546.804 10.258 538.553 51.9616 547.244 90.8074C554.29 122.325 571.789 151.582 595.202 175.861C615.258 196.563 637.415 216.089 650.049 241.801C664.902 272.029 663.038 311.878 661.693 336.867" stroke="url(#paint43_linear_9_5671)" stroke-miterlimit="10"/>
<path d="M428.961 -219.576C441.545 -206.02 454.291 -192.482 465.135 -177.402C496.857 -133.289 527.462 -85.7536 534.399 -31.9127C539.635 8.76668 530.003 50.0248 536.759 88.9604C542.486 122.004 559.385 153.299 583.667 178.581C603.751 199.378 626.409 218.536 639.353 244.2C655.121 275.47 652.597 317.187 655.357 342.675" stroke="url(#paint44_linear_9_5671)" stroke-miterlimit="10"/>
<path d="M424.292 -214.34C437.918 -200.19 451.727 -186.056 463.284 -170.085C493.164 -128.75 521.557 -83.8718 527.616 -33.2897C532.472 7.29229 521.392 48.1129 526.295 87.115C530.639 121.701 547.01 155.014 572.148 181.295C592.256 202.199 615.436 220.969 628.673 246.591C645.377 278.906 642.177 322.498 649.033 348.489" stroke="url(#paint45_linear_9_5671)" stroke-miterlimit="10"/>
<path d="M419.614 -209.099C434.279 -194.364 449.154 -179.628 461.412 -162.769C489.442 -124.209 515.59 -81.994 520.804 -34.6647C525.269 5.81518 512.676 46.2143 515.801 85.2717C518.7 121.416 534.6 156.743 560.613 184.016C580.744 205.026 604.447 223.409 617.973 248.981C635.621 282.337 631.732 327.799 642.684 354.294" stroke="url(#paint46_linear_9_5671)" stroke-miterlimit="10"/>
<path d="M414.934 -203.868C430.631 -188.536 446.569 -173.205 459.541 -155.454C485.703 -119.662 509.589 -80.1027 514.001 -36.0435C518.036 4.33983 503.89 44.3148 505.316 83.4245C506.687 121.122 522.196 158.46 549.074 186.728C569.234 207.833 593.462 225.837 607.274 251.371C625.87 285.755 621.288 333.1 636.348 360.103" stroke="url(#paint47_linear_9_5671)" stroke-miterlimit="10"/>
<path d="M410.256 -198.627C426.996 -182.702 443.979 -166.769 457.67 -148.137C481.947 -115.107 503.567 -78.2119 507.198 -37.4215C510.786 2.87223 495.051 42.4086 494.831 81.5781C494.609 120.816 509.792 160.178 537.539 189.449C557.722 210.661 582.49 228.271 596.577 253.77C616.132 289.179 610.847 338.41 630.003 365.916" stroke="url(#paint48_linear_9_5671)" stroke-miterlimit="10"/>
<path d="M405.579 -193.386C423.36 -176.867 441.383 -160.321 455.798 -140.821C478.185 -110.54 497.498 -76.3114 500.386 -38.7955C503.478 1.40951 486.152 40.4789 484.337 79.7357C482.461 120.511 497.387 161.896 525.991 192.166C546.198 213.485 571.514 230.697 585.865 256.156C606.395 292.584 600.391 343.707 623.646 371.724" stroke="url(#paint49_linear_9_5671)" stroke-miterlimit="10"/>
<path d="M400.91 -188.15C419.734 -171.037 438.78 -153.87 453.947 -133.504C474.444 -105.972 491.418 -74.4168 493.603 -40.1728C496.159 -0.059083 477.235 38.5267 473.873 77.8901C470.27 120.173 485.007 163.623 514.477 194.888C534.712 216.302 560.571 233.128 575.19 258.555C596.703 295.998 589.974 349.026 617.331 377.535" stroke="url(#paint50_linear_9_5671)" stroke-miterlimit="10"/>
<path d="M396.232 -182.91C416.095 -165.212 436.162 -147.404 452.076 -126.188C470.669 -101.39 485.289 -72.5213 486.8 -41.5513C488.751 -1.52114 468.258 36.5504 463.388 76.0432C457.99 119.813 472.603 165.341 502.938 197.6C523.197 219.121 549.652 235.52 564.481 260.949C587.052 299.367 579.521 354.33 610.977 383.351" stroke="url(#paint51_linear_9_5671)" stroke-miterlimit="10"/>
<path d="M391.555 -177.669C412.459 -159.378 433.519 -140.927 450.208 -118.863C466.894 -96.808 479.121 -70.6197 479.988 -42.9259C481.236 -2.9776 459.242 34.5517 452.895 74.2002C445.659 119.426 460.199 167.058 491.403 200.321C511.682 221.94 538.663 237.96 553.782 263.339C577.293 302.789 569.077 359.632 604.629 389.155" stroke="url(#paint52_linear_9_5671)" stroke-miterlimit="10"/>
<path d="M592.992 393.517C564.397 365.726 568.598 317.422 553.688 278.753C552.045 274.498 550.171 270.365 547.999 266.383C533.876 240.55 508.24 223.362 488.061 201.547C483.129 196.217 478.546 190.589 474.327 184.726C460.766 165.897 450.873 144.555 447.255 121.578C444.921 106.688 445.274 91.4199 447.572 76.4072C452.148 46.4576 463.659 17.6964 467.738 -11.3623C469.092 -20.9787 469.637 -30.6433 468.821 -40.4322C467.156 -60.433 459.772 -79.6169 449.34 -97.1716C445.552 -103.549 441.357 -109.722 436.918 -115.66C428.719 -126.63 419.728 -136.89 410.772 -146.795C401.527 -157.019 392.23 -166.999 381.593 -176.365" stroke="url(#paint53_linear_9_5671)" stroke-miterlimit="10"/>
<path d="M581.346 397.882C556.186 368.896 561.103 321.046 547.453 281.961C545.95 277.658 544.223 273.466 542.202 269.413C529.082 243.122 504.786 224.778 484.703 202.758C479.801 197.378 475.16 191.755 470.802 185.968C456.818 167.378 445.646 146.8 441.801 123.78C439.328 108.917 440.039 93.6196 442.234 78.6003C446.617 48.4966 456.053 19.5529 458.253 -9.25456C458.993 -18.7852 458.943 -28.3141 457.632 -37.9405C454.943 -57.631 446.907 -76.5007 436.189 -93.9484C432.298 -100.284 428.038 -106.47 423.62 -112.455C415.432 -123.545 406.73 -134.078 398.598 -144.367C390.202 -154.985 382.278 -165.622 371.614 -175.054" stroke="url(#paint54_linear_9_5671)" stroke-miterlimit="10"/>
<path d="M569.7 402.248C547.974 372.066 553.606 324.671 541.221 285.178C539.862 280.836 538.272 276.588 536.402 272.463C524.287 245.715 501.326 226.206 481.347 203.999C476.466 198.571 471.77 192.961 467.278 187.238C452.881 168.885 440.42 149.074 436.347 126.011C433.736 111.175 434.8 95.8602 436.888 80.826C441.083 50.5563 448.437 21.4337 448.771 -7.1178C448.898 -16.5543 448.261 -25.951 446.454 -35.4234C442.733 -54.7999 434.065 -73.3541 423.048 -90.6997C419.054 -96.9935 414.733 -103.183 410.323 -109.22C402.157 -120.427 393.733 -131.237 386.433 -141.914C378.899 -152.922 372.331 -164.207 361.645 -173.718" stroke="url(#paint55_linear_9_5671)" stroke-miterlimit="10"/>
<path d="M558.063 406.609C539.771 375.232 546.111 328.296 534.995 288.383C533.768 283.997 532.332 279.686 530.617 275.498C519.505 248.293 497.884 227.628 478.002 205.216C473.138 199.733 468.396 194.131 463.774 188.481C448.954 170.368 435.217 151.329 430.905 128.218C428.163 113.406 429.571 98.0771 431.566 83.0327C435.565 52.6005 440.843 23.2954 439.302 -4.99652C438.818 -14.3389 437.591 -23.6118 435.281 -32.9182C430.536 -51.9843 421.216 -70.2243 409.913 -87.4629C405.816 -93.7147 401.433 -99.9082 397.04 -106.001C388.886 -117.328 380.75 -128.411 374.271 -139.481C367.586 -150.883 362.392 -162.825 351.675 -172.411" stroke="url(#paint56_linear_9_5671)" stroke-miterlimit="10"/>
<path d="M546.418 410.975C531.568 378.4 538.615 331.922 528.763 291.601C527.677 287.167 526.382 282.808 524.826 278.546C514.722 250.892 494.433 229.053 474.652 206.446C469.817 200.912 465.016 195.315 460.255 189.741C445.021 171.864 429.997 153.591 425.457 130.438C422.576 115.653 424.334 100.298 426.234 85.2438C430.046 54.6457 433.244 25.1699 429.833 -2.87432C428.737 -12.1226 426.916 -21.2598 424.113 -30.4239C418.344 -49.1796 408.384 -67.1007 396.782 -84.237C392.583 -90.447 388.138 -96.6444 383.754 -102.789C375.614 -114.229 367.755 -125.59 362.108 -137.046C356.281 -148.847 352.452 -161.441 341.7 -171.09" stroke="url(#paint57_linear_9_5671)" stroke-miterlimit="10"/>
<path d="M534.772 415.341C523.357 381.57 531.122 335.556 522.527 294.81C521.582 290.328 520.433 285.91 519.031 281.585C509.931 253.473 490.982 230.478 471.301 207.675C466.484 202.085 461.628 196.501 456.737 190.999C441.08 173.362 424.776 155.854 420.009 132.657C416.998 117.897 419.108 102.524 420.894 87.4579C424.509 56.6973 425.633 27.039 420.356 -0.749152C418.647 -9.90333 416.236 -18.9166 412.931 -27.9148C406.13 -46.3566 395.534 -63.9705 383.638 -80.9963C379.335 -87.1643 374.825 -93.3741 370.459 -99.5745C362.333 -111.127 354.76 -122.768 349.946 -134.613C344.968 -146.808 342.503 -160.055 331.733 -169.774" stroke="url(#paint58_linear_9_5671)" stroke-miterlimit="10"/>
<path d="M523.126 419.706C515.145 384.74 523.618 339.185 516.296 298.027C515.495 293.506 514.482 289.032 513.232 284.635C505.136 256.066 487.515 231.91 467.942 208.907C463.145 203.27 458.244 197.695 453.218 192.258C437.148 174.857 419.556 158.116 414.552 134.879C411.402 120.146 413.866 104.756 415.554 89.6715C418.982 58.745 418.021 28.9077 410.87 1.37911C408.55 -7.68096 405.552 -16.5621 401.75 -25.4061C393.925 -43.5376 382.68 -60.829 370.494 -77.7561C366.088 -83.8822 361.508 -90.0924 357.159 -96.3484C349.044 -108.021 341.763 -119.928 337.769 -132.164C333.65 -144.757 332.55 -158.657 321.749 -168.451" stroke="url(#paint59_linear_9_5671)" stroke-miterlimit="10"/>
<path d="M511.489 424.068C506.946 387.915 516.13 342.806 510.069 301.232C509.4 296.667 508.542 292.13 507.446 287.671C500.346 258.647 484.072 233.332 464.597 210.125C459.821 204.44 454.861 198.869 449.705 193.505C433.212 176.344 414.34 160.366 409.109 137.086C405.829 122.378 408.634 106.965 410.228 91.8701C413.459 60.7811 410.419 30.7731 401.406 3.48875C398.462 -5.48204 394.878 -14.231 390.582 -22.9126C381.733 -40.7336 369.848 -57.706 357.363 -74.531C352.854 -80.6151 348.213 -86.8293 343.881 -93.1409C335.789 -104.93 328.785 -117.114 325.624 -129.738C322.354 -142.725 322.622 -157.27 311.799 -167.142" stroke="url(#paint60_linear_9_5671)" stroke-miterlimit="10"/>
<path d="M499.843 428.434C498.734 391.085 508.634 346.432 503.837 304.449C503.309 299.836 502.592 295.251 501.655 290.718C495.562 261.245 480.622 234.756 461.25 211.362C456.5 205.618 451.485 200.06 446.19 194.771C429.283 177.847 409.127 162.644 403.665 139.314C400.246 124.632 403.403 109.202 404.891 94.0922C407.935 62.8373 402.811 32.6503 391.923 5.62545C388.368 -3.25124 384.198 -11.868 379.401 -20.4038C369.519 -37.9109 356.99 -54.5727 344.216 -71.299C339.604 -77.3412 334.901 -83.5593 330.578 -89.9229C322.496 -101.832 315.782 -114.289 313.444 -127.298C311.036 -140.675 312.665 -155.88 301.811 -165.827" stroke="url(#paint61_linear_9_5671)" stroke-miterlimit="10"/>
<path d="M488.201 432.808C490.527 394.264 501.133 350.069 497.609 307.674C497.221 303.014 496.641 298.374 495.868 293.773C490.779 263.844 477.178 236.198 457.903 212.6C453.173 206.809 448.1 201.255 442.683 196.035C425.355 179.351 403.919 164.912 398.221 141.541C394.659 126.879 398.181 111.436 399.563 96.3113C402.414 64.9022 395.212 34.5244 382.458 7.75563C378.29 -1.02695 373.531 -9.51985 368.231 -17.8897C357.329 -35.0781 344.157 -51.4292 331.084 -68.0533C326.369 -74.0536 321.6 -80.284 317.299 -86.6949C309.231 -98.7168 302.794 -111.451 301.288 -124.847C299.73 -138.619 302.723 -154.477 291.851 -164.494" stroke="url(#paint62_linear_9_5671)" stroke-miterlimit="10"/>
<path d="M476.555 437.173C482.324 397.43 493.637 353.694 491.374 310.882C491.127 306.175 490.696 301.483 490.062 296.807C485.977 266.42 473.712 237.61 454.537 213.815C449.828 207.977 444.709 202.432 439.15 197.28C421.407 180.833 398.683 167.16 392.757 143.747C389.066 129.109 392.929 113.643 394.216 98.5081C396.88 66.9331 387.594 36.3763 372.974 9.86349C368.195 1.17501 362.849 -7.18568 357.043 -15.3979C345.117 -32.2759 331.292 -48.3129 317.933 -64.8299C313.115 -70.7883 308.285 -77.0227 303.989 -83.4939C295.932 -95.6366 289.783 -108.644 289.111 -122.427C288.41 -136.597 292.768 -153.108 281.869 -163.192" stroke="url(#paint63_linear_9_5671)" stroke-miterlimit="10"/>
<path d="M464.918 441.535C474.121 400.597 486.153 357.324 485.15 314.096C485.039 309.352 484.751 304.593 484.279 299.85C481.198 269.006 470.273 239.039 451.198 215.049C446.516 209.152 441.342 203.62 435.643 198.544C417.478 182.336 393.474 169.427 387.321 145.971C383.491 131.36 387.707 115.876 388.888 100.727C391.355 68.9893 379.998 38.2583 363.5 11.9967C358.108 3.40238 352.164 -4.83097 345.87 -12.8926C332.911 -29.4567 318.455 -45.1782 304.797 -61.5931C299.876 -67.5095 294.984 -73.7478 290.706 -80.2746C282.663 -92.5298 276.8 -105.818 276.951 -119.986C277.101 -134.55 282.823 -151.714 271.902 -161.876" stroke="url(#paint64_linear_9_5671)" stroke-miterlimit="10"/>
<path d="M453.272 445.901C465.909 403.768 478.649 360.953 478.915 317.305C479.182 273.657 465.298 228.299 432.13 199.791C413.551 183.82 388.259 171.678 381.87 148.182C377.909 133.595 382.469 118.097 383.553 102.929C385.833 71.026 372.392 40.116 354.027 14.1105C335.663 -11.895 312.393 -34.1283 291.666 -58.3674C277.187 -75.3008 263.293 -95.2651 264.797 -117.555C265.805 -132.518 272.895 -150.326 261.944 -160.562" stroke="url(#paint65_linear_9_5671)" stroke-miterlimit="10"/>
<path d="M251.349 -153.029C263.333 -142.883 258.96 -125.745 259.395 -110.779C260.031 -89.0796 273.837 -69.0117 287.577 -51.4377C307.192 -26.562 328.064 -3.85598 343.9 23.0146C360.522 51.2232 373.85 85.0002 374.722 117.84C375.126 133.245 372.507 148.845 376.56 164.198C382.76 187.326 405.47 200.228 423.271 216.206C454.124 243.892 468.245 286.294 468.958 327.362C469.674 368.438 458.853 408.988 447.152 449.12" stroke="url(#paint66_linear_9_5671)" stroke-miterlimit="10"/>
<path d="M240.753 -145.495C253.775 -135.432 252.079 -119.016 254.005 -103.998C256.699 -82.9433 270.42 -62.6663 283.488 -44.5082C301.902 -18.9205 320.365 4.33037 333.777 31.927C348.622 62.4783 361.84 98.9565 365.883 132.754C367.75 148.387 367.054 164.115 371.247 180.206C377.181 202.976 397.391 216.616 414.418 232.609C442.98 259.434 457.309 298.911 459.009 337.415C460.708 375.919 451.814 414.201 441.036 452.328" stroke="url(#paint67_linear_9_5671)" stroke-miterlimit="10"/>
<path d="M230.167 -137.964C244.233 -127.988 245.151 -112.326 248.611 -97.2253C253.273 -76.865 267.044 -56.3662 279.398 -37.5781C296.671 -11.3314 315.54 11.638 323.658 40.8281C333.17 75.0349 349.787 112.882 357.061 147.661C360.379 163.518 361.64 179.36 365.946 196.219C371.669 218.62 389.326 232.989 405.577 249.017C431.867 274.955 446.389 311.542 449.071 347.473C451.754 383.405 444.778 419.422 434.936 455.55" stroke="url(#paint68_linear_9_5671)" stroke-miterlimit="10"/>
<path d="M219.572 -130.429C234.671 -120.544 238.162 -105.64 243.209 -90.4488C249.739 -70.7817 263.66 -50.0627 275.306 -30.6564C291.437 -3.75062 304.619 21.05 313.531 49.7327C324.589 85.3266 337.676 126.812 348.221 162.576C352.962 178.658 356.221 194.616 360.637 212.236C366.158 234.263 381.254 249.346 396.727 265.428C420.766 290.432 435.461 324.175 439.126 357.535C442.791 390.895 437.742 424.644 428.828 458.775" stroke="url(#paint69_linear_9_5671)" stroke-miterlimit="10"/>
<path d="M208.977 -122.895C225.113 -113.093 232.86 -99.6224 237.818 -83.6678C243.966 -63.8836 260.301 -43.7699 271.22 -23.7183C286.222 3.8312 296.571 29.5339 303.411 58.6536C312.384 96.8901 325.545 140.769 339.385 177.498C345.539 193.809 350.805 209.881 355.319 228.256C360.641 249.918 373.187 265.69 387.86 281.847C409.684 305.881 424.511 336.808 429.159 367.596C433.808 398.384 430.677 429.868 422.699 461.998" stroke="url(#paint70_linear_9_5671)" stroke-miterlimit="10"/>
<path d="M198.39 -115.364C215.571 -105.649 224.004 -92.2632 232.425 -76.8948C242.454 -58.5847 256.943 -37.4768 267.127 -16.7965C281.018 11.3897 288.407 38.0268 293.281 67.5499C300.045 108.47 313.367 154.707 330.551 192.401C338.089 208.943 345.391 225.126 350.006 244.264C355.143 265.546 365.148 282.004 379.011 298.258C398.651 321.282 413.583 349.442 419.214 377.658C424.845 405.874 423.641 435.09 416.587 465.215" stroke="url(#paint71_linear_9_5671)" stroke-miterlimit="10"/>
<path d="M187.795 -107.83C206.013 -98.197 216.845 -85.527 227.031 -70.1216C238.716 -52.4374 253.59 -31.1953 263.046 -9.86979C275.827 18.9532 280.151 46.5382 283.166 76.4595C287.572 120.085 301.174 168.681 321.72 207.312C330.646 224.093 339.989 240.375 344.705 260.278C349.649 281.182 357.128 298.292 370.17 314.667C387.669 336.633 402.659 362.064 409.277 387.716C415.891 413.36 416.606 440.312 410.495 468.434" stroke="url(#paint72_linear_9_5671)" stroke-miterlimit="10"/>
<path d="M177.2 -100.295C196.451 -90.754 209.654 -78.7488 221.629 -63.3452C234.928 -46.241 250.237 -24.9143 258.945 -2.94471C270.623 26.5116 271.792 55.0426 273.027 85.3592C274.93 131.681 288.951 182.656 312.878 222.218C323.175 239.246 334.588 255.625 339.38 276.281C344.151 296.81 349.115 314.547 361.296 331.069C376.696 351.932 391.716 374.685 399.304 397.76C406.901 420.832 409.543 445.515 404.36 471.64" stroke="url(#paint73_linear_9_5671)" stroke-miterlimit="10"/>
<path d="M166.614 -92.765C186.901 -83.3063 202.425 -71.9367 216.239 -56.5643C231.128 -40.0012 246.899 -18.6203 254.859 3.99326C265.452 34.0758 263.379 63.5392 262.915 94.2765C262.182 143.262 276.737 196.676 304.054 237.145C315.724 254.428 329.201 270.887 334.086 292.311C338.675 312.468 341.172 330.802 352.461 347.493C365.81 367.224 380.802 387.332 389.374 407.835C397.945 428.338 402.514 450.753 398.263 474.87" stroke="url(#paint74_linear_9_5671)" stroke-miterlimit="10"/>
<path d="M156.019 -85.2311C177.351 -75.8589 195.18 -65.0692 210.845 -49.7918C227.312 -33.726 243.571 -12.35 250.775 10.911C260.286 41.6281 254.905 71.9832 252.797 103.177C249.303 154.79 264.498 210.686 295.228 252.044C308.264 269.584 323.821 286.118 328.781 308.315C333.203 328.085 333.275 346.999 343.617 363.892C354.975 382.446 369.875 399.945 379.433 417.885C388.988 435.816 395.478 455.974 392.16 478.083" stroke="url(#paint75_linear_9_5671)" stroke-miterlimit="10"/>
<path d="M145.42 -77.7045C167.789 -68.4151 187.924 -58.1769 205.44 -43.0231C223.493 -27.4095 240.235 -6.07517 246.674 17.8368C255.108 49.1767 246.377 80.3924 242.658 112.077C236.292 166.266 252.238 224.717 286.377 266.954C300.773 284.764 318.419 301.368 323.457 324.319C327.705 343.713 325.423 363.16 334.752 380.291C344.192 397.648 358.931 412.566 369.469 427.926C380.006 443.285 388.424 461.175 386.032 481.287" stroke="url(#paint76_linear_9_5671)" stroke-miterlimit="10"/>
<path d="M134.834 -70.1738C158.236 -60.9757 180.668 -51.2369 200.058 -36.2455C219.699 -21.0557 236.969 0.199305 242.593 24.7631C250.018 56.7179 237.843 88.764 232.543 120.987C223.211 177.692 239.999 238.776 277.555 281.861C293.315 299.95 313.09 316.598 318.156 340.332C322.266 359.337 317.711 379.293 325.902 396.703C333.497 412.844 348.003 425.2 359.523 437.988C371.047 450.783 381.379 466.4 379.924 484.512" stroke="url(#paint77_linear_9_5671)" stroke-miterlimit="10"/>
<path d="M124.239 -62.6397C148.686 -53.528 173.417 -44.2602 194.656 -29.4693C215.895 -14.6783 233.611 6.49208 238.504 31.6929C244.821 64.2928 229.276 97.101 222.416 129.891C210.041 189.048 227.74 252.834 268.715 296.775C285.839 315.142 307.679 331.85 312.838 356.352C316.757 374.988 310.119 395.405 317.047 413.126C322.891 428.061 337.066 437.837 349.572 448.061C362.079 458.284 374.338 471.634 373.807 487.74" stroke="url(#paint78_linear_9_5671)" stroke-miterlimit="10"/>
<path d="M363.459 490.675C363.972 474.77 352.593 461.421 340.908 450.979C329.22 440.529 315.905 430.508 310.226 415.73C303.494 398.219 309.202 378.221 305.121 359.902C300.934 341.151 287.366 326.774 273.757 312.666C269.89 308.648 266.012 304.653 262.352 300.578C222.802 256.6 204.606 194.344 214.975 136.082C215.843 131.191 216.899 126.292 218.057 121.399C224.51 93.9715 233.868 66.5045 228.644 39.1893C223.888 14.301 206.846 -6.36842 187.139 -22.0645C165.877 -38.9985 141.041 -51.3255 116.072 -62.9201" stroke="url(#paint79_linear_9_5671)" stroke-miterlimit="10"/>
<path d="M353.111 493.611C353.619 477.912 343.111 464.566 332.232 453.893C321.353 443.22 308.905 432.943 303.384 418.333C296.853 401.022 301.637 381.458 297.38 363.443C293.025 345.013 280.008 330.615 266.951 316.486C263.229 312.457 259.505 308.447 255.97 304.361C217.84 260.356 199.153 199.62 207.512 142.244C208.209 137.423 209.093 132.594 210.058 127.77C215.513 100.739 223.835 73.6262 218.753 46.6603C214.126 22.0879 197.831 1.7541 179.588 -14.6935C158.286 -33.8891 133.365 -49.1484 107.872 -63.2343" stroke="url(#paint80_linear_9_5671)" stroke-miterlimit="10"/>
<path d="M342.763 496.546C343.265 481.053 333.629 467.711 323.559 456.815C313.498 445.915 301.911 435.395 296.557 420.949C290.218 403.84 294.076 384.702 289.655 366.997C285.139 348.885 272.677 334.474 260.151 320.322C256.583 316.278 253.002 312.25 249.599 308.168C212.894 264.126 193.713 204.928 200.062 148.439C200.588 143.688 201.291 138.932 202.086 134.178C206.533 107.548 213.836 80.7819 208.888 54.1687C204.386 29.904 188.916 9.77725 172.058 -7.27328C150.737 -28.8464 125.706 -46.9305 99.6915 -63.4992" stroke="url(#paint81_linear_9_5671)" stroke-miterlimit="10"/>
<path d="M332.419 499.489C332.906 484.206 324.142 470.868 314.899 459.741C305.647 448.619 294.925 437.842 289.739 423.561C283.601 406.652 286.524 387.943 281.93 370.55C277.244 352.759 265.343 338.324 253.36 324.155C249.938 320.1 246.51 316.057 243.232 311.963C207.947 267.895 188.283 210.213 192.618 154.622C192.984 149.945 193.495 145.258 194.114 140.566C197.563 114.332 203.83 87.9209 199.024 61.6569C194.642 37.7117 180.069 17.6752 164.534 0.114981C143.245 -23.9336 118.054 -44.7445 91.5182 -63.7961" stroke="url(#paint82_linear_9_5671)" stroke-miterlimit="10"/>
<path d="M322.071 502.423C322.548 487.338 314.66 474.012 306.226 462.662C297.792 451.313 287.932 440.293 282.908 426.168C276.964 409.462 278.959 391.179 274.202 374.095C269.346 356.625 257.996 342.169 246.556 327.982C243.288 323.913 240.007 319.859 236.866 315.758C203.006 271.652 182.842 215.492 185.17 160.796C185.364 156.189 185.707 151.58 186.135 146.956C188.576 121.124 193.812 95.0546 189.148 69.1399C184.895 45.5107 171.293 25.4762 156.993 7.50982C135.807 -19.1109 110.384 -42.5519 83.3278 -64.0863" stroke="url(#paint83_linear_9_5671)" stroke-miterlimit="10"/>
<path d="M311.724 505.36C312.186 490.484 305.178 477.158 297.562 465.582C289.946 454.006 280.946 442.742 276.087 428.773C270.335 412.269 271.404 394.412 266.482 377.638C261.461 360.497 250.671 346.017 239.77 331.804C236.648 327.724 233.521 323.656 230.505 319.543C198.065 275.411 177.412 220.778 177.731 166.968C177.754 162.432 177.917 157.896 178.169 153.333C179.612 127.898 183.82 102.179 179.299 76.6139C175.174 53.3007 162.607 33.2034 149.487 14.8922C128.498 -14.3878 102.753 -40.3635 75.172 -64.3891" stroke="url(#paint84_linear_9_5671)" stroke-miterlimit="10"/>
<path d="M301.367 508.298C301.824 493.628 295.687 480.305 288.88 468.507C282.074 456.708 273.941 445.188 269.248 431.384C263.697 415.079 263.834 397.66 258.745 381.187C253.554 364.367 243.325 349.861 232.958 335.635C229.99 331.54 227.009 327.462 224.121 323.344C193.11 279.184 171.957 226.073 170.269 173.158C170.124 168.699 170.112 164.225 170.181 159.728C170.616 134.693 173.797 109.325 169.418 84.1087C165.419 61.1031 153.964 40.9116 141.938 22.2904C121.268 -9.71769 95.0754 -38.1675 66.9644 -64.6725" stroke="url(#paint85_linear_9_5671)" stroke-miterlimit="10"/>
<path d="M291.019 511.233C291.47 496.769 286.205 483.45 280.216 471.425C274.228 459.399 266.955 447.635 262.427 433.987C257.072 417.894 256.278 400.892 251.025 384.728C245.665 368.23 235.987 353.703 226.172 339.455C223.35 335.35 220.519 331.249 217.76 327.128C188.165 282.933 166.524 231.349 162.827 179.321C162.51 174.932 162.318 170.531 162.206 166.107C161.643 141.469 163.788 116.456 159.551 91.5886C155.681 68.899 145.394 48.5805 134.414 29.6787C114.185 -5.12672 87.4234 -35.9816 58.7912 -64.9694" stroke="url(#paint86_linear_9_5671)" stroke-miterlimit="10"/>
<path d="M280.672 514.168C281.104 499.905 276.723 486.595 271.544 474.346C266.373 462.094 259.962 450.086 255.597 436.595C250.443 420.7 248.723 404.125 243.297 388.274C237.767 372.096 228.653 357.553 219.369 343.283C216.701 339.164 214.007 335.055 211.385 330.926C183.219 286.702 161.078 236.641 155.374 185.507C154.885 181.188 154.513 176.861 154.227 172.498C152.653 148.253 153.779 123.586 149.679 99.0802C145.937 76.7066 136.883 56.245 126.873 37.0739C107.226 -0.576375 79.7544 -33.7887 50.6011 -65.2594" stroke="url(#paint87_linear_9_5671)" stroke-miterlimit="10"/>
<path d="M270.327 517.112C270.754 503.055 267.244 489.749 262.883 477.274C258.522 464.799 252.985 452.531 248.77 439.211C243.809 423.52 241.162 407.37 235.571 391.828C229.873 375.972 221.319 361.404 212.578 347.116C210.056 342.986 207.516 338.863 205.019 334.722C178.269 290.464 155.643 241.938 147.93 191.691C147.273 187.45 146.725 183.184 146.259 178.896C143.678 155.05 143.777 130.734 139.816 106.569C136.203 84.5118 128.426 63.8979 119.353 44.4714C100.423 3.94053 72.1092 -31.5851 42.4313 -65.547" stroke="url(#paint88_linear_9_5671)" stroke-miterlimit="10"/>
<path d="M259.979 520.046C260.391 506.199 257.75 492.888 254.21 480.195C250.667 467.493 245.991 454.982 241.939 441.818C237.179 426.326 233.597 410.606 227.846 395.381C221.978 379.846 213.975 365.257 205.778 350.952C203.41 346.807 201.015 342.673 198.647 338.529C173.326 294.242 150.199 247.238 140.476 197.877C139.656 193.703 138.92 189.514 138.27 185.29C134.691 161.842 133.754 137.88 129.935 114.064C126.45 92.3225 119.997 71.5672 111.812 51.8662C93.7591 8.42851 64.4398 -29.3926 34.2406 -65.8373" stroke="url(#paint89_linear_9_5671)" stroke-miterlimit="10"/>
<path d="M249.632 522.982C250.037 509.341 248.268 496.033 245.534 483.109C242.8 470.184 238.994 457.425 235.106 444.418C230.539 429.128 226.033 413.842 220.106 398.922C214.069 383.708 206.629 369.103 198.971 354.772C196.749 350.616 194.509 346.468 192.274 342.308C168.369 297.986 144.754 252.51 133.025 204.043C132.034 199.939 131.126 195.82 130.296 191.67C125.71 168.622 123.753 145.008 120.068 121.544C116.709 100.11 111.626 79.2332 104.28 59.2583C87.2457 12.8947 56.7792 -27.2027 26.0589 -66.1304" stroke="url(#paint90_linear_9_5671)" stroke-miterlimit="10"/>
<path d="M239.275 525.921C240.997 467.157 218.175 411.003 192.168 358.6C166.162 306.196 136.338 254.881 122.328 198.066C111.636 154.723 110.44 109.13 96.7599 66.6551C80.8849 17.3665 49.1306 -25.0082 17.8892 -66.4187" stroke="url(#paint91_linear_9_5671)" stroke-miterlimit="10"/>
</g>
<defs>
<linearGradient id="paint0_linear_9_5671" x1="910.921" y1="-77.2922" x2="869.503" y2="-60.4217" gradientUnits="userSpaceOnUse">
<stop stop-color="#26282C"/>
<stop offset="0.0001" stop-color="#28282B"/>
<stop offset="1" stop-color="white"/>
</linearGradient>
<linearGradient id="paint1_linear_9_5671" x1="905.136" y1="-72.4254" x2="863" y2="-55.2627" gradientUnits="userSpaceOnUse">
<stop stop-color="#26282C"/>
<stop offset="0.0001" stop-color="#28282B"/>
<stop offset="1" stop-color="white"/>
</linearGradient>
<linearGradient id="paint2_linear_9_5671" x1="899.358" y1="-67.5704" x2="856.438" y2="-50.0885" gradientUnits="userSpaceOnUse">
<stop stop-color="#26282C"/>
<stop offset="0.0001" stop-color="#28282B"/>
<stop offset="1" stop-color="white"/>
</linearGradient>
<linearGradient id="paint3_linear_9_5671" x1="893.61" y1="-62.7127" x2="849.794" y2="-44.8655" gradientUnits="userSpaceOnUse">
<stop stop-color="#26282C"/>
<stop offset="0.0001" stop-color="#28282B"/>
<stop offset="1" stop-color="white"/>
</linearGradient>
<linearGradient id="paint4_linear_9_5671" x1="887.88" y1="-57.8736" x2="843.029" y2="-39.6049" gradientUnits="userSpaceOnUse">
<stop stop-color="#26282C"/>
<stop offset="0.0001" stop-color="#28282B"/>
<stop offset="1" stop-color="white"/>
</linearGradient>
<linearGradient id="paint5_linear_9_5671" x1="882.19" y1="-53.0445" x2="836.142" y2="-34.288" gradientUnits="userSpaceOnUse">
<stop stop-color="#26282C"/>
<stop offset="0.0001" stop-color="#28282B"/>
<stop offset="1" stop-color="white"/>
</linearGradient>
<linearGradient id="paint6_linear_9_5671" x1="876.49" y1="-48.2114" x2="829.041" y2="-28.8845" gradientUnits="userSpaceOnUse">
<stop stop-color="#26282C"/>
<stop offset="0.0001" stop-color="#28282B"/>
<stop offset="1" stop-color="white"/>
</linearGradient>
<linearGradient id="paint7_linear_9_5671" x1="870.822" y1="-43.3926" x2="821.728" y2="-23.3955" gradientUnits="userSpaceOnUse">
<stop stop-color="#26282C"/>
<stop offset="0.0001" stop-color="#28282B"/>
<stop offset="1" stop-color="white"/>
</linearGradient>
<linearGradient id="paint8_linear_9_5671" x1="865.176" y1="-38.5861" x2="814.112" y2="-17.7868" gradientUnits="userSpaceOnUse">
<stop stop-color="#26282C"/>
<stop offset="0.0001" stop-color="#28282B"/>
<stop offset="1" stop-color="white"/>
</linearGradient>
<linearGradient id="paint9_linear_9_5671" x1="859.514" y1="-33.7646" x2="806.187" y2="-12.0433" gradientUnits="userSpaceOnUse">
<stop stop-color="#26282C"/>
<stop offset="0.0001" stop-color="#28282B"/>
<stop offset="1" stop-color="white"/>
</linearGradient>
<linearGradient id="paint10_linear_9_5671" x1="853.878" y1="-28.9579" x2="797.981" y2="-6.18997" gradientUnits="userSpaceOnUse">
<stop stop-color="#26282C"/>
<stop offset="0.0001" stop-color="#28282B"/>
<stop offset="1" stop-color="white"/>
</linearGradient>
<linearGradient id="paint11_linear_9_5671" x1="848.268" y1="-24.1717" x2="789.541" y2="-0.25128" gradientUnits="userSpaceOnUse">
<stop stop-color="#26282C"/>
<stop offset="0.0001" stop-color="#28282B"/>
<stop offset="1" stop-color="white"/>
</linearGradient>
<linearGradient id="paint12_linear_9_5671" x1="842.652" y1="-19.3728" x2="780.947" y2="5.76092" gradientUnits="userSpaceOnUse">
<stop stop-color="#26282C"/>
<stop offset="0.0001" stop-color="#28282B"/>
<stop offset="1" stop-color="white"/>
</linearGradient>
<linearGradient id="paint13_linear_9_5671" x1="837.058" y1="-14.5838" x2="772.252" y2="11.8134" gradientUnits="userSpaceOnUse">
<stop stop-color="#26282C"/>
<stop offset="0.0001" stop-color="#28282B"/>
<stop offset="1" stop-color="white"/>
</linearGradient>
<linearGradient id="paint14_linear_9_5671" x1="825.672" y1="-13.4605" x2="764.832" y2="11.3211" gradientUnits="userSpaceOnUse">
<stop stop-color="#26282C"/>
<stop offset="0.0001" stop-color="#28282B"/>
<stop offset="1" stop-color="white"/>
</linearGradient>
<linearGradient id="paint15_linear_9_5671" x1="814.345" y1="-12.3755" x2="757.238" y2="10.8851" gradientUnits="userSpaceOnUse">
<stop stop-color="#26282C"/>
<stop offset="0.0001" stop-color="#28282B"/>
<stop offset="1" stop-color="white"/>
</linearGradient>
<linearGradient id="paint16_linear_9_5671" x1="803.147" y1="-11.333" x2="749.473" y2="10.5293" gradientUnits="userSpaceOnUse">
<stop stop-color="#26282C"/>
<stop offset="0.0001" stop-color="#28282B"/>
<stop offset="1" stop-color="white"/>
</linearGradient>
<linearGradient id="paint17_linear_9_5671" x1="795.323" y1="-11.6563" x2="741.494" y2="10.2693" gradientUnits="userSpaceOnUse">
<stop stop-color="#26282C"/>
<stop offset="0.0001" stop-color="#28282B"/>
<stop offset="1" stop-color="white"/>
</linearGradient>
<linearGradient id="paint18_linear_9_5671" x1="788.337" y1="-12.3343" x2="733.22" y2="10.1161" gradientUnits="userSpaceOnUse">
<stop stop-color="#26282C"/>
<stop offset="0.0001" stop-color="#28282B"/>
<stop offset="1" stop-color="white"/>
</linearGradient>
<linearGradient id="paint19_linear_9_5671" x1="781.364" y1="-13.0084" x2="724.606" y2="10.1105" gradientUnits="userSpaceOnUse">
<stop stop-color="#26282C"/>
<stop offset="0.0001" stop-color="#28282B"/>
<stop offset="1" stop-color="white"/>
</linearGradient>
<linearGradient id="paint20_linear_9_5671" x1="774.411" y1="-13.6954" x2="715.559" y2="10.2759" gradientUnits="userSpaceOnUse">
<stop stop-color="#26282C"/>
<stop offset="0.0001" stop-color="#28282B"/>
<stop offset="1" stop-color="white"/>
</linearGradient>
<linearGradient id="paint21_linear_9_5671" x1="767.477" y1="-14.386" x2="706.03" y2="10.6427" gradientUnits="userSpaceOnUse">
<stop stop-color="#26282C"/>
<stop offset="0.0001" stop-color="#28282B"/>
<stop offset="1" stop-color="white"/>
</linearGradient>
<linearGradient id="paint22_linear_9_5671" x1="760.564" y1="-15.0845" x2="695.949" y2="11.2344" gradientUnits="userSpaceOnUse">
<stop stop-color="#26282C"/>
<stop offset="0.0001" stop-color="#28282B"/>
<stop offset="1" stop-color="white"/>
</linearGradient>
<linearGradient id="paint23_linear_9_5671" x1="753.67" y1="-15.8099" x2="685.305" y2="12.0365" gradientUnits="userSpaceOnUse">
<stop stop-color="#26282C"/>
<stop offset="0.0001" stop-color="#28282B"/>
<stop offset="1" stop-color="white"/>
</linearGradient>
<linearGradient id="paint24_linear_9_5671" x1="746.814" y1="-16.5267" x2="674.146" y2="13.0725" gradientUnits="userSpaceOnUse">
<stop stop-color="#26282C"/>
<stop offset="0.0001" stop-color="#28282B"/>
<stop offset="1" stop-color="white"/>
</linearGradient>
<linearGradient id="paint25_linear_9_5671" x1="739.996" y1="-17.2736" x2="662.6" y2="14.2514" gradientUnits="userSpaceOnUse">
<stop stop-color="#26282C"/>
<stop offset="0.0001" stop-color="#28282B"/>
<stop offset="1" stop-color="white"/>
</linearGradient>
<linearGradient id="paint26_linear_9_5671" x1="733.199" y1="-18.0189" x2="650.731" y2="15.5717" gradientUnits="userSpaceOnUse">
<stop stop-color="#26282C"/>
<stop offset="0.0001" stop-color="#28282B"/>
<stop offset="1" stop-color="white"/>
</linearGradient>
<linearGradient id="paint27_linear_9_5671" x1="721.416" y1="-14.3499" x2="645.764" y2="16.4647" gradientUnits="userSpaceOnUse">
<stop stop-color="#26282C"/>
<stop offset="0.0001" stop-color="#28282B"/>
<stop offset="1" stop-color="white"/>
</linearGradient>
<linearGradient id="paint28_linear_9_5671" x1="709.663" y1="-10.6823" x2="640.737" y2="17.3924" gradientUnits="userSpaceOnUse">
<stop stop-color="#26282C"/>
<stop offset="0.0001" stop-color="#28282B"/>
<stop offset="1" stop-color="white"/>
</linearGradient>
<linearGradient id="paint29_linear_9_5671" x1="697.918" y1="-7.03721" x2="635.602" y2="18.3455" gradientUnits="userSpaceOnUse">
<stop stop-color="#26282C"/>
<stop offset="0.0001" stop-color="#28282B"/>
<stop offset="1" stop-color="white"/>
</linearGradient>
<linearGradient id="paint30_linear_9_5671" x1="686.233" y1="-3.39795" x2="630.35" y2="19.3641" gradientUnits="userSpaceOnUse">
<stop stop-color="#26282C"/>
<stop offset="0.0001" stop-color="#28282B"/>
<stop offset="1" stop-color="white"/>
</linearGradient>
<linearGradient id="paint31_linear_9_5671" x1="675.291" y1="-0.0553603" x2="624.931" y2="20.457" gradientUnits="userSpaceOnUse">
<stop stop-color="#26282C"/>
<stop offset="0.0001" stop-color="#28282B"/>
<stop offset="1" stop-color="white"/>
</linearGradient>
<linearGradient id="paint32_linear_9_5671" x1="666.377" y1="2.44107" x2="619.205" y2="21.6552" gradientUnits="userSpaceOnUse">
<stop stop-color="#26282C"/>
<stop offset="0.0001" stop-color="#28282B"/>
<stop offset="1" stop-color="white"/>
</linearGradient>
<linearGradient id="paint33_linear_9_5671" x1="657.526" y1="4.92601" x2="613.099" y2="23.0219" gradientUnits="userSpaceOnUse">
<stop stop-color="#26282C"/>
<stop offset="0.0001" stop-color="#28282B"/>
<stop offset="1" stop-color="white"/>
</linearGradient>
<linearGradient id="paint34_linear_9_5671" x1="648.757" y1="7.36385" x2="606.503" y2="24.5747" gradientUnits="userSpaceOnUse">
<stop stop-color="#26282C"/>
<stop offset="0.0001" stop-color="#28282B"/>
<stop offset="1" stop-color="white"/>
</linearGradient>
<linearGradient id="paint35_linear_9_5671" x1="640.066" y1="9.77968" x2="599.282" y2="26.3919" gradientUnits="userSpaceOnUse">
<stop stop-color="#26282C"/>
<stop offset="0.0001" stop-color="#28282B"/>
<stop offset="1" stop-color="white"/>
</linearGradient>
<linearGradient id="paint36_linear_9_5671" x1="631.439" y1="12.1738" x2="591.327" y2="28.5122" gradientUnits="userSpaceOnUse">
<stop stop-color="#26282C"/>
<stop offset="0.0001" stop-color="#28282B"/>
<stop offset="1" stop-color="white"/>
</linearGradient>
<linearGradient id="paint37_linear_9_5671" x1="622.905" y1="14.5196" x2="582.606" y2="30.9341" gradientUnits="userSpaceOnUse">
<stop stop-color="#26282C"/>
<stop offset="0.0001" stop-color="#28282B"/>
<stop offset="1" stop-color="white"/>
</linearGradient>
<linearGradient id="paint38_linear_9_5671" x1="614.45" y1="16.8341" x2="573.387" y2="33.5599" gradientUnits="userSpaceOnUse">
<stop stop-color="#26282C"/>
<stop offset="0.0001" stop-color="#28282B"/>
<stop offset="1" stop-color="white"/>
</linearGradient>
<linearGradient id="paint39_linear_9_5671" x1="606.068" y1="19.1194" x2="563.862" y2="36.3106" gradientUnits="userSpaceOnUse">
<stop stop-color="#26282C"/>
<stop offset="0.0001" stop-color="#28282B"/>
<stop offset="1" stop-color="white"/>
</linearGradient>
<linearGradient id="paint40_linear_9_5671" x1="597.234" y1="25.9994" x2="556.684" y2="42.5163" gradientUnits="userSpaceOnUse">
<stop stop-color="#26282C"/>
<stop offset="0.0001" stop-color="#28282B"/>
<stop offset="1" stop-color="white"/>
</linearGradient>
<linearGradient id="paint41_linear_9_5671" x1="588.415" y1="32.8638" x2="549.287" y2="48.8014" gradientUnits="userSpaceOnUse">
<stop stop-color="#26282C"/>
<stop offset="0.0001" stop-color="#28282B"/>
<stop offset="1" stop-color="white"/>
</linearGradient>
<linearGradient id="paint42_linear_9_5671" x1="582.646" y1="38.4949" x2="541.438" y2="55.2798" gradientUnits="userSpaceOnUse">
<stop stop-color="#26282C"/>
<stop offset="0.0001" stop-color="#28282B"/>
<stop offset="1" stop-color="white"/>
</linearGradient>
<linearGradient id="paint43_linear_9_5671" x1="578.459" y1="43.4823" x2="533.204" y2="61.9158" gradientUnits="userSpaceOnUse">
<stop stop-color="#26282C"/>
<stop offset="0.0001" stop-color="#28282B"/>
<stop offset="1" stop-color="white"/>
</linearGradient>
<linearGradient id="paint44_linear_9_5671" x1="574.268" y1="48.4708" x2="524.652" y2="68.6806" gradientUnits="userSpaceOnUse">
<stop stop-color="#26282C"/>
<stop offset="0.0001" stop-color="#28282B"/>
<stop offset="1" stop-color="white"/>
</linearGradient>
<linearGradient id="paint45_linear_9_5671" x1="570.092" y1="53.4585" x2="515.854" y2="75.5505" gradientUnits="userSpaceOnUse">
<stop stop-color="#26282C"/>
<stop offset="0.0001" stop-color="#28282B"/>
<stop offset="1" stop-color="white"/>
</linearGradient>
<linearGradient id="paint46_linear_9_5671" x1="565.887" y1="58.4477" x2="506.818" y2="82.508" gradientUnits="userSpaceOnUse">
<stop stop-color="#26282C"/>
<stop offset="0.0001" stop-color="#28282B"/>
<stop offset="1" stop-color="white"/>
</linearGradient>
<linearGradient id="paint47_linear_9_5671" x1="561.681" y1="63.4374" x2="497.625" y2="89.5289" gradientUnits="userSpaceOnUse">
<stop stop-color="#26282C"/>
<stop offset="0.0001" stop-color="#28282B"/>
<stop offset="1" stop-color="white"/>
</linearGradient>
<linearGradient id="paint48_linear_9_5671" x1="557.482" y1="68.4297" x2="488.313" y2="96.6038" gradientUnits="userSpaceOnUse">
<stop stop-color="#26282C"/>
<stop offset="0.0001" stop-color="#28282B"/>
<stop offset="1" stop-color="white"/>
</linearGradient>
<linearGradient id="paint49_linear_9_5671" x1="553.28" y1="73.4189" x2="478.9" y2="103.715" gradientUnits="userSpaceOnUse">
<stop stop-color="#26282C"/>
<stop offset="0.0001" stop-color="#28282B"/>
<stop offset="1" stop-color="white"/>
</linearGradient>
<linearGradient id="paint50_linear_9_5671" x1="549.117" y1="78.4007" x2="469.44" y2="110.855" gradientUnits="userSpaceOnUse">
<stop stop-color="#26282C"/>
<stop offset="0.0001" stop-color="#28282B"/>
<stop offset="1" stop-color="white"/>
</linearGradient>
<linearGradient id="paint51_linear_9_5671" x1="544.955" y1="83.3775" x2="459.901" y2="118.022" gradientUnits="userSpaceOnUse">
<stop stop-color="#26282C"/>
<stop offset="0.0001" stop-color="#28282B"/>
<stop offset="1" stop-color="white"/>
</linearGradient>
<linearGradient id="paint52_linear_9_5671" x1="540.824" y1="88.3373" x2="450.317" y2="125.203" gradientUnits="userSpaceOnUse">
<stop stop-color="#26282C"/>
<stop offset="0.0001" stop-color="#28282B"/>
<stop offset="1" stop-color="white"/>
</linearGradient>
<linearGradient id="paint53_linear_9_5671" x1="528.342" y1="91.8559" x2="445.203" y2="125.72" gradientUnits="userSpaceOnUse">
<stop stop-color="#26282C"/>
<stop offset="0.0001" stop-color="#28282B"/>
<stop offset="1" stop-color="white"/>
</linearGradient>
<linearGradient id="paint54_linear_9_5671" x1="515.966" y1="95.3306" x2="439.877" y2="126.323" gradientUnits="userSpaceOnUse">
<stop stop-color="#26282C"/>
<stop offset="0.0001" stop-color="#28282B"/>
<stop offset="1" stop-color="white"/>
</linearGradient>
<linearGradient id="paint55_linear_9_5671" x1="503.753" y1="98.7538" x2="434.39" y2="127.007" gradientUnits="userSpaceOnUse">
<stop stop-color="#26282C"/>
<stop offset="0.0001" stop-color="#28282B"/>
<stop offset="1" stop-color="white"/>
</linearGradient>
<linearGradient id="paint56_linear_9_5671" x1="491.745" y1="102.079" x2="428.801" y2="127.718" gradientUnits="userSpaceOnUse">
<stop stop-color="#26282C"/>
<stop offset="0.0001" stop-color="#28282B"/>
<stop offset="1" stop-color="white"/>
</linearGradient>
<linearGradient id="paint57_linear_9_5671" x1="480.001" y1="105.302" x2="423.111" y2="128.475" gradientUnits="userSpaceOnUse">
<stop stop-color="#26282C"/>
<stop offset="0.0001" stop-color="#28282B"/>
<stop offset="1" stop-color="white"/>
</linearGradient>
<linearGradient id="paint58_linear_9_5671" x1="468.551" y1="108.406" x2="417.356" y2="129.258" gradientUnits="userSpaceOnUse">
<stop stop-color="#26282C"/>
<stop offset="0.0001" stop-color="#28282B"/>
<stop offset="1" stop-color="white"/>
</linearGradient>
<linearGradient id="paint59_linear_9_5671" x1="457.49" y1="111.35" x2="406.059" y2="132.299" gradientUnits="userSpaceOnUse">
<stop stop-color="#26282C"/>
<stop offset="0.0001" stop-color="#28282B"/>
<stop offset="1" stop-color="white"/>
</linearGradient>
<linearGradient id="paint60_linear_9_5671" x1="446.967" y1="114.075" x2="394.009" y2="135.646" gradientUnits="userSpaceOnUse">
<stop stop-color="#26282C"/>
<stop offset="0.0001" stop-color="#28282B"/>
<stop offset="1" stop-color="white"/>
</linearGradient>
<linearGradient id="paint61_linear_9_5671" x1="437.1" y1="116.528" x2="381.948" y2="138.993" gradientUnits="userSpaceOnUse">
<stop stop-color="#26282C"/>
<stop offset="0.0001" stop-color="#28282B"/>
<stop offset="1" stop-color="white"/>
</linearGradient>
<linearGradient id="paint62_linear_9_5671" x1="428.583" y1="118.452" x2="369.894" y2="142.357" gradientUnits="userSpaceOnUse">
<stop stop-color="#26282C"/>
<stop offset="0.0001" stop-color="#28282B"/>
<stop offset="1" stop-color="white"/>
</linearGradient>
<linearGradient id="paint63_linear_9_5671" x1="423.457" y1="118.969" x2="357.832" y2="145.699" gradientUnits="userSpaceOnUse">
<stop stop-color="#26282C"/>
<stop offset="0.0001" stop-color="#28282B"/>
<stop offset="1" stop-color="white"/>
</linearGradient>
<linearGradient id="paint64_linear_9_5671" x1="418.587" y1="119.391" x2="345.782" y2="149.046" gradientUnits="userSpaceOnUse">
<stop stop-color="#26282C"/>
<stop offset="0.0001" stop-color="#28282B"/>
<stop offset="1" stop-color="white"/>
</linearGradient>
<linearGradient id="paint65_linear_9_5671" x1="413.908" y1="119.737" x2="333.723" y2="152.398" gradientUnits="userSpaceOnUse">
<stop stop-color="#26282C"/>
<stop offset="0.0001" stop-color="#28282B"/>
<stop offset="1" stop-color="white"/>
</linearGradient>
<linearGradient id="paint66_linear_9_5671" x1="400.566" y1="127.144" x2="328.037" y2="156.686" gradientUnits="userSpaceOnUse">
<stop stop-color="#26282C"/>
<stop offset="0.0001" stop-color="#28282B"/>
<stop offset="1" stop-color="white"/>
</linearGradient>
<linearGradient id="paint67_linear_9_5671" x1="387.274" y1="134.525" x2="322.359" y2="160.967" gradientUnits="userSpaceOnUse">
<stop stop-color="#26282C"/>
<stop offset="0.0001" stop-color="#28282B"/>
<stop offset="1" stop-color="white"/>
</linearGradient>
<linearGradient id="paint68_linear_9_5671" x1="374.048" y1="141.891" x2="316.693" y2="165.253" gradientUnits="userSpaceOnUse">
<stop stop-color="#26282C"/>
<stop offset="0.0001" stop-color="#28282B"/>
<stop offset="1" stop-color="white"/>
</linearGradient>
<linearGradient id="paint69_linear_9_5671" x1="360.889" y1="149.229" x2="311.018" y2="169.542" gradientUnits="userSpaceOnUse">
<stop stop-color="#26282C"/>
<stop offset="0.0001" stop-color="#28282B"/>
<stop offset="1" stop-color="white"/>
</linearGradient>
<linearGradient id="paint70_linear_9_5671" x1="347.82" y1="156.525" x2="305.324" y2="173.834" gradientUnits="userSpaceOnUse">
<stop stop-color="#26282C"/>
<stop offset="0.0001" stop-color="#28282B"/>
<stop offset="1" stop-color="white"/>
</linearGradient>
<linearGradient id="paint71_linear_9_5671" x1="340.504" y1="161.478" x2="299.647" y2="178.12" gradientUnits="userSpaceOnUse">
<stop stop-color="#26282C"/>
<stop offset="0.0001" stop-color="#28282B"/>
<stop offset="1" stop-color="white"/>
</linearGradient>
<linearGradient id="paint72_linear_9_5671" x1="334.71" y1="165.816" x2="293.989" y2="182.402" gradientUnits="userSpaceOnUse">
<stop stop-color="#26282C"/>
<stop offset="0.0001" stop-color="#28282B"/>
<stop offset="1" stop-color="white"/>
</linearGradient>
<linearGradient id="paint73_linear_9_5671" x1="329.376" y1="169.952" x2="288.292" y2="186.686" gradientUnits="userSpaceOnUse">
<stop stop-color="#26282C"/>
<stop offset="0.0001" stop-color="#28282B"/>
<stop offset="1" stop-color="white"/>
</linearGradient>
<linearGradient id="paint74_linear_9_5671" x1="324.258" y1="174.018" x2="280.577" y2="191.811" gradientUnits="userSpaceOnUse">
<stop stop-color="#26282C"/>
<stop offset="0.0001" stop-color="#28282B"/>
<stop offset="1" stop-color="white"/>
</linearGradient>
<linearGradient id="paint75_linear_9_5671" x1="319.252" y1="178.03" x2="266.872" y2="199.366" gradientUnits="userSpaceOnUse">
<stop stop-color="#26282C"/>
<stop offset="0.0001" stop-color="#28282B"/>
<stop offset="1" stop-color="white"/>
</linearGradient>
<linearGradient id="paint76_linear_9_5671" x1="314.29" y1="182.01" x2="253.082" y2="206.941" gradientUnits="userSpaceOnUse">
<stop stop-color="#26282C"/>
<stop offset="0.0001" stop-color="#28282B"/>
<stop offset="1" stop-color="white"/>
</linearGradient>
<linearGradient id="paint77_linear_9_5671" x1="309.409" y1="185.976" x2="239.275" y2="214.543" gradientUnits="userSpaceOnUse">
<stop stop-color="#26282C"/>
<stop offset="0.0001" stop-color="#28282B"/>
<stop offset="1" stop-color="white"/>
</linearGradient>
<linearGradient id="paint78_linear_9_5671" x1="304.518" y1="189.946" x2="225.425" y2="222.162" gradientUnits="userSpaceOnUse">
<stop stop-color="#26282C"/>
<stop offset="0.0001" stop-color="#28282B"/>
<stop offset="1" stop-color="white"/>
</linearGradient>
<linearGradient id="paint79_linear_9_5671" x1="292.648" y1="192.337" x2="218.305" y2="222.619" gradientUnits="userSpaceOnUse">
<stop stop-color="#26282C"/>
<stop offset="0.0001" stop-color="#28282B"/>
<stop offset="1" stop-color="white"/>
</linearGradient>
<linearGradient id="paint80_linear_9_5671" x1="280.768" y1="194.709" x2="211.161" y2="223.062" gradientUnits="userSpaceOnUse">
<stop stop-color="#26282C"/>
<stop offset="0.0001" stop-color="#28282B"/>
<stop offset="1" stop-color="white"/>
</linearGradient>
<linearGradient id="paint81_linear_9_5671" x1="268.931" y1="197.093" x2="204.024" y2="223.531" gradientUnits="userSpaceOnUse">
<stop stop-color="#26282C"/>
<stop offset="0.0001" stop-color="#28282B"/>
<stop offset="1" stop-color="white"/>
</linearGradient>
<linearGradient id="paint82_linear_9_5671" x1="257.125" y1="199.453" x2="196.884" y2="223.991" gradientUnits="userSpaceOnUse">
<stop stop-color="#26282C"/>
<stop offset="0.0001" stop-color="#28282B"/>
<stop offset="1" stop-color="white"/>
</linearGradient>
<linearGradient id="paint83_linear_9_5671" x1="245.354" y1="201.795" x2="189.733" y2="224.45" gradientUnits="userSpaceOnUse">
<stop stop-color="#26282C"/>
<stop offset="0.0001" stop-color="#28282B"/>
<stop offset="1" stop-color="white"/>
</linearGradient>
<linearGradient id="paint84_linear_9_5671" x1="233.666" y1="204.103" x2="182.575" y2="224.914" gradientUnits="userSpaceOnUse">
<stop stop-color="#26282C"/>
<stop offset="0.0001" stop-color="#28282B"/>
<stop offset="1" stop-color="white"/>
</linearGradient>
<linearGradient id="paint85_linear_9_5671" x1="222.03" y1="206.39" x2="175.376" y2="225.393" gradientUnits="userSpaceOnUse">
<stop stop-color="#26282C"/>
<stop offset="0.0001" stop-color="#28282B"/>
<stop offset="1" stop-color="white"/>
</linearGradient>
<linearGradient id="paint86_linear_9_5671" x1="210.543" y1="208.616" x2="168.175" y2="225.873" gradientUnits="userSpaceOnUse">
<stop stop-color="#26282C"/>
<stop offset="0.0001" stop-color="#28282B"/>
<stop offset="1" stop-color="white"/>
</linearGradient>
<linearGradient id="paint87_linear_9_5671" x1="199.269" y1="210.755" x2="160.923" y2="226.374" gradientUnits="userSpaceOnUse">
<stop stop-color="#26282C"/>
<stop offset="0.0001" stop-color="#28282B"/>
<stop offset="1" stop-color="white"/>
</linearGradient>
<linearGradient id="paint88_linear_9_5671" x1="188.387" y1="212.745" x2="152.334" y2="227.43" gradientUnits="userSpaceOnUse">
<stop stop-color="#26282C"/>
<stop offset="0.0001" stop-color="#28282B"/>
<stop offset="1" stop-color="white"/>
</linearGradient>
<linearGradient id="paint89_linear_9_5671" x1="178.064" y1="214.496" x2="141.576" y2="229.359" gradientUnits="userSpaceOnUse">
<stop stop-color="#26282C"/>
<stop offset="0.0001" stop-color="#28282B"/>
<stop offset="1" stop-color="white"/>
</linearGradient>
<linearGradient id="paint90_linear_9_5671" x1="168.297" y1="216.022" x2="130.819" y2="231.288" gradientUnits="userSpaceOnUse">
<stop stop-color="#26282C"/>
<stop offset="0.0001" stop-color="#28282B"/>
<stop offset="1" stop-color="white"/>
</linearGradient>
<linearGradient id="paint91_linear_9_5671" x1="158.9" y1="217.402" x2="120.054" y2="233.225" gradientUnits="userSpaceOnUse">
<stop stop-color="#26282C"/>
<stop offset="0.0001" stop-color="#28282B"/>
<stop offset="1" stop-color="white"/>
</linearGradient>
</defs>
</svg>
