<svg
    class="eye"
    width="40"
    height="40"
    viewBox="0 0 40 40"
    fill="none"
    xmlns="http://www.w3.org/2000/svg"
>
    <path
        fill-rule="evenodd"
        clip-rule="evenodd"
        d="M12.7071 19.2929C12.3166 19.6834 12.3166 20.3166 12.7071 20.7071L15.0502 23.0503C17.7839 25.7839 22.216 25.7839 24.9497 23.0503L27.2929 20.7071C27.6834 20.3166 27.6834 19.6834 27.2929 19.2929L24.9497 16.9498C22.2161 14.2161 17.7839 14.2161 15.0502 16.9498L12.7071 19.2929ZM23.5 20C23.5 21.933 21.933 23.5 20 23.5C18.067 23.5 16.5 21.933 16.5 20C16.5 18.067 18.067 16.5 20 16.5C21.933 16.5 23.5 18.067 23.5 20ZM20 21.5C20.8284 21.5 21.5 20.8284 21.5 20C21.5 19.1716 20.8284 18.5 20 18.5C19.1715 18.5 18.5 19.1716 18.5 20C18.5 20.8284 19.1715 21.5 20 21.5Z"
        fill="#1F1433"
    />
</svg>
