<svg width="12" height="12" viewBox="0 0 12 12" fill="none" xmlns="http://www.w3.org/2000/svg">
<path d="M5.39999 1.2002C5.06862 1.2002 4.79999 1.46882 4.79999 1.8002C4.79999 2.13157 5.06862 2.4002 5.39999 2.4002H6.59999C6.93137 2.4002 7.19999 2.13157 7.19999 1.8002C7.19999 1.46882 6.93137 1.2002 6.59999 1.2002H5.39999Z" fill="#17B00A"/>
<path fill-rule="evenodd" clip-rule="evenodd" d="M2.39999 3.0002C2.39999 2.33745 2.93725 1.8002 3.59999 1.8002C3.59999 2.79431 4.40588 3.6002 5.39999 3.6002H6.59999C7.59411 3.6002 8.39999 2.79431 8.39999 1.8002C9.06274 1.8002 9.59999 2.33745 9.59999 3.0002V9.60019C9.59999 10.2629 9.06274 10.8002 8.39999 10.8002H3.59999C2.93725 10.8002 2.39999 10.2629 2.39999 9.60019V3.0002ZM8.22426 6.42446C8.45857 6.19014 8.45857 5.81025 8.22426 5.57593C7.98994 5.34162 7.61004 5.34162 7.37573 5.57593L5.39999 7.55167L4.62426 6.77593C4.38994 6.54162 4.01004 6.54162 3.77573 6.77593C3.54142 7.01025 3.54142 7.39014 3.77573 7.62446L4.97573 8.82446C5.21004 9.05877 5.58994 9.05877 5.82426 8.82446L8.22426 6.42446Z" fill="#17B00A"/>
</svg>
